<!DOCTYPE svg PUBLIC "-//W3C//DTD SVG 1.1//EN"
"http://www.w3.org/Graphics/SVG/1.1/DTD/svg11.dtd">
<svg xmlns="http://www.w3.org/2000/svg" xmlns:xlink="http://www.w3.org/1999/xlink" width="1200px" height="700px" viewBox="-13.9514949563498423 -1 25.5369074358587298 9"><title>Tree layout -- Seed: 472539067</title><path d="M0.000000,0.000000 L-10.585412,1.000000" stroke="black" stroke-width="0.06" fill="none"></path><path d="M0.000000,0.000000 L-5.378814,1.000000" stroke="black" stroke-width="0.06" fill="none"></path><path d="M0.000000,0.000000 L-0.149736,1.000000" stroke="black" stroke-width="0.06" fill="none"></path><path d="M0.000000,0.000000 L1.499243,1.000000" stroke="black" stroke-width="0.06" fill="none"></path><path d="M0.000000,0.000000 L4.232794,1.000000" stroke="black" stroke-width="0.06" fill="none"></path><path d="M0.000000,0.000000 L7.090819,1.000000" stroke="black" stroke-width="0.06" fill="none"></path><path d="M0.000000,0.000000 L8.846373,1.000000" stroke="black" stroke-width="0.06" fill="none"></path><path d="M0.000000,0.000000 L10.585412,1.000000" stroke="black" stroke-width="0.06" fill="none"></path><path d="M-10.585412,1.000000 L-10.585412,2.000000" stroke="black" stroke-width="0.06" fill="none"></path><path d="M-10.585412,2.000000 L-10.585412,3.000000" stroke="black" stroke-width="0.06" fill="none"></path><path d="M-5.378814,1.000000 L-8.770274,2.000000" stroke="black" stroke-width="0.06" fill="none"></path><path d="M-5.378814,1.000000 L-3.427129,2.000000" stroke="black" stroke-width="0.06" fill="none"></path><path d="M-5.378814,1.000000 L-1.987355,2.000000" stroke="black" stroke-width="0.06" fill="none"></path><path d="M-8.770274,2.000000 L-8.770274,3.000000" stroke="black" stroke-width="0.06" fill="none"></path><path d="M-8.770274,3.000000 L-12.354300,4.000000" stroke="black" stroke-width="0.06" fill="none"></path><path d="M-8.770274,3.000000 L-8.035000,4.000000" stroke="black" stroke-width="0.06" fill="none"></path><path d="M-8.770274,3.000000 L-6.556093,4.000000" stroke="black" stroke-width="0.06" fill="none"></path><path d="M-8.770274,3.000000 L-5.186247,4.000000" stroke="black" stroke-width="0.06" fill="none"></path><path d="M-12.354300,4.000000 L-12.951495,5.000000" stroke="black" stroke-width="0.06" fill="none"></path><path d="M-12.354300,4.000000 L-11.757105,5.000000" stroke="black" stroke-width="0.06" fill="none"></path><path d="M-12.951495,5.000000 L-12.951495,6.000000" stroke="black" stroke-width="0.06" fill="none"></path><path d="M-8.035000,4.000000 L-9.862654,5.000000" stroke="black" stroke-width="0.06" fill="none"></path><path d="M-8.035000,4.000000 L-7.739928,5.000000" stroke="black" stroke-width="0.06" fill="none"></path><path d="M-8.035000,4.000000 L-6.207346,5.000000" stroke="black" stroke-width="0.06" fill="none"></path><path d="M-7.739928,5.000000 L-8.373247,6.000000" stroke="black" stroke-width="0.06" fill="none"></path><path d="M-7.739928,5.000000 L-7.106610,6.000000" stroke="black" stroke-width="0.06" fill="none"></path><path d="M-3.427129,2.000000 L-3.427129,3.000000" stroke="black" stroke-width="0.06" fill="none"></path><path d="M-3.427129,3.000000 L-3.427129,4.000000" stroke="black" stroke-width="0.06" fill="none"></path><path d="M-0.149736,1.000000 L-0.149736,2.000000" stroke="black" stroke-width="0.06" fill="none"></path><path d="M1.499243,1.000000 L1.499243,2.000000" stroke="black" stroke-width="0.06" fill="none"></path><path d="M1.499243,2.000000 L-2.047544,3.000000" stroke="black" stroke-width="0.06" fill="none"></path><path d="M1.499243,2.000000 L-0.617873,3.000000" stroke="black" stroke-width="0.06" fill="none"></path><path d="M1.499243,2.000000 L0.690556,3.000000" stroke="black" stroke-width="0.06" fill="none"></path><path d="M1.499243,2.000000 L3.301719,3.000000" stroke="black" stroke-width="0.06" fill="none"></path><path d="M1.499243,2.000000 L5.046030,3.000000" stroke="black" stroke-width="0.06" fill="none"></path><path d="M-0.617873,3.000000 L-0.617873,4.000000" stroke="black" stroke-width="0.06" fill="none"></path><path d="M-0.617873,4.000000 L-2.181403,5.000000" stroke="black" stroke-width="0.06" fill="none"></path><path d="M-0.617873,4.000000 L-0.310756,5.000000" stroke="black" stroke-width="0.06" fill="none"></path><path d="M-0.617873,4.000000 L0.945656,5.000000" stroke="black" stroke-width="0.06" fill="none"></path><path d="M-0.310756,5.000000 L-0.310756,6.000000" stroke="black" stroke-width="0.06" fill="none"></path><path d="M-0.310756,6.000000 L-0.310756,7.000000" stroke="black" stroke-width="0.06" fill="none"></path><path d="M0.690556,3.000000 L0.690556,4.000000" stroke="black" stroke-width="0.06" fill="none"></path><path d="M3.301719,3.000000 L2.216285,4.000000" stroke="black" stroke-width="0.06" fill="none"></path><path d="M3.301719,3.000000 L3.584790,4.000000" stroke="black" stroke-width="0.06" fill="none"></path><path d="M3.301719,3.000000 L4.387154,4.000000" stroke="black" stroke-width="0.06" fill="none"></path><path d="M4.232794,1.000000 L4.232794,2.000000" stroke="black" stroke-width="0.06" fill="none"></path><path d="M7.090819,1.000000 L7.090819,2.000000" stroke="black" stroke-width="0.06" fill="none"></path><path d="M7.090819,2.000000 L6.455651,3.000000" stroke="black" stroke-width="0.06" fill="none"></path><path d="M7.090819,2.000000 L7.725987,3.000000" stroke="black" stroke-width="0.06" fill="none"></path><rect x="-11.3633" y="2.6" width="1.55586" height="0.8" stroke-width="0.03" style="fill:#4860E8;stroke:black"></rect><text x="-10.5854" y="3" text-anchor="middle" dy="0.4em" font-size="0.4">1</text><rect x="-11.4831" y="1.6" width="1.7954" height="0.8" stroke-width="0.03" style="fill:#4860E8;stroke:black"></rect><text x="-10.5854" y="2" text-anchor="middle" dy="0.4em" font-size="0.4">2</text><rect x="-11.2736" y="0.6" width="1.37643" height="0.8" stroke-width="0.03" style="fill:#4860E8;stroke:black"></rect><text x="-10.5854" y="1" text-anchor="middle" dy="0.4em" font-size="0.4">3</text><rect x="-13.4652" y="5.6" width="1.02739" height="0.8" stroke-width="0.03" style="fill:#4860E8;stroke:black"></rect><text x="-12.9515" y="6" text-anchor="middle" dy="0.4em" font-size="0.4">4</text><rect x="-13.2257" y="4.6" width="0.548316" height="0.8" stroke-width="0.03" style="fill:#4860E8;stroke:black"></rect><text x="-12.9515" y="5" text-anchor="middle" dy="0.4em" font-size="0.4">5</text><rect x="-12.4773" y="4.6" width="1.44046" height="0.8" stroke-width="0.03" style="fill:#4860E8;stroke:black"></rect><text x="-11.7571" y="5" text-anchor="middle" dy="0.4em" font-size="0.4">6</text><rect x="-13.3046" y="3.6" width="1.90056" height="0.8" stroke-width="0.03" style="fill:#4860E8;stroke:black"></rect><text x="-12.3543" y="4" text-anchor="middle" dy="0.4em" font-size="0.4">7</text><rect x="-10.8369" y="4.6" width="1.94844" height="0.8" stroke-width="0.03" style="fill:#4860E8;stroke:black"></rect><text x="-9.86265" y="5" text-anchor="middle" dy="0.4em" font-size="0.4">8</text><rect x="-8.82966" y="5.6" width="0.91283" height="0.8" stroke-width="0.03" style="fill:#4860E8;stroke:black"></rect><text x="-8.37325" y="6" text-anchor="middle" dy="0.4em" font-size="0.4">9</text><rect x="-7.71683" y="5.6" width="1.22044" height="0.8" stroke-width="0.03" style="fill:#4860E8;stroke:black"></rect><text x="-7.10661" y="6" text-anchor="middle" dy="0.4em" font-size="0.4">10</text><rect x="-8.68843" y="4.6" width="1.89701" height="0.8" stroke-width="0.03" style="fill:#4860E8;stroke:black"></rect><text x="-7.73993" y="5" text-anchor="middle" dy="0.4em" font-size="0.4">11</text><rect x="-6.59142" y="4.6" width="0.768151" height="0.8" stroke-width="0.03" style="fill:#4860E8;stroke:black"></rect><text x="-6.20735" y="5" text-anchor="middle" dy="0.4em" font-size="0.4">12</text><rect x="-8.82815" y="3.6" width="1.58631" height="0.8" stroke-width="0.03" style="fill:#4860E8;stroke:black"></rect><text x="-8.035" y="4" text-anchor="middle" dy="0.4em" font-size="0.4">13</text><rect x="-7.04185" y="3.6" width="0.97151" height="0.8" stroke-width="0.03" style="fill:#4860E8;stroke:black"></rect><text x="-6.55609" y="4" text-anchor="middle" dy="0.4em" font-size="0.4">14</text><rect x="-5.87034" y="3.6" width="1.36818" height="0.8" stroke-width="0.03" style="fill:#4860E8;stroke:black"></rect><text x="-5.18625" y="4" text-anchor="middle" dy="0.4em" font-size="0.4">15</text><rect x="-9.33495" y="2.6" width="1.12936" height="0.8" stroke-width="0.03" style="fill:#4860E8;stroke:black"></rect><text x="-8.77027" y="3" text-anchor="middle" dy="0.4em" font-size="0.4">16</text><rect x="-9.48771" y="1.6" width="1.43488" height="0.8" stroke-width="0.03" style="fill:#4860E8;stroke:black"></rect><text x="-8.77027" y="2" text-anchor="middle" dy="0.4em" font-size="0.4">17</text><rect x="-4.30216" y="3.6" width="1.75005" height="0.8" stroke-width="0.03" style="fill:#4860E8;stroke:black"></rect><text x="-3.42713" y="4" text-anchor="middle" dy="0.4em" font-size="0.4">18</text><rect x="-3.93288" y="2.6" width="1.01151" height="0.8" stroke-width="0.03" style="fill:#4860E8;stroke:black"></rect><text x="-3.42713" y="3" text-anchor="middle" dy="0.4em" font-size="0.4">19</text><rect x="-3.95528" y="1.6" width="1.05629" height="0.8" stroke-width="0.03" style="fill:#4860E8;stroke:black"></rect><text x="-3.42713" y="2" text-anchor="middle" dy="0.4em" font-size="0.4">20</text><rect x="-2.69898" y="1.6" width="1.42325" height="0.8" stroke-width="0.03" style="fill:#4860E8;stroke:black"></rect><text x="-1.98735" y="2" text-anchor="middle" dy="0.4em" font-size="0.4">21</text><rect x="-6.10626" y="0.6" width="1.4549" height="0.8" stroke-width="0.03" style="fill:#4860E8;stroke:black"></rect><text x="-5.37881" y="1" text-anchor="middle" dy="0.4em" font-size="0.4">22</text><rect x="-0.944205" y="1.6" width="1.58894" height="0.8" stroke-width="0.03" style="fill:#4860E8;stroke:black"></rect><text x="-0.149736" y="2" text-anchor="middle" dy="0.4em" font-size="0.4">23</text><rect x="-0.670087" y="0.6" width="1.0407" height="0.8" stroke-width="0.03" style="fill:#4860E8;stroke:black"></rect><text x="-0.149736" y="1" text-anchor="middle" dy="0.4em" font-size="0.4">24</text><rect x="-2.72138" y="2.6" width="1.34766" height="0.8" stroke-width="0.03" style="fill:#4860E8;stroke:black"></rect><text x="-2.04754" y="3" text-anchor="middle" dy="0.4em" font-size="0.4">25</text><rect x="-3.11749" y="4.6" width="1.87217" height="0.8" stroke-width="0.03" style="fill:#4860E8;stroke:black"></rect><text x="-2.1814" y="5" text-anchor="middle" dy="0.4em" font-size="0.4">26</text><rect x="-1.16" y="6.6" width="1.69849" height="0.8" stroke-width="0.03" style="fill:#4860E8;stroke:black"></rect><text x="-0.310756" y="7" text-anchor="middle" dy="0.4em" font-size="0.4">27</text><rect x="-1.28748" y="5.6" width="1.95344" height="0.8" stroke-width="0.03" style="fill:#4860E8;stroke:black"></rect><text x="-0.310756" y="6" text-anchor="middle" dy="0.4em" font-size="0.4">28</text><rect x="-1.04532" y="4.6" width="1.46912" height="0.8" stroke-width="0.03" style="fill:#4860E8;stroke:black"></rect><text x="-0.310756" y="5" text-anchor="middle" dy="0.4em" font-size="0.4">29</text><rect x="0.623807" y="4.6" width="0.643699" height="0.8" stroke-width="0.03" style="fill:#4860E8;stroke:black"></rect><text x="0.945656" y="5" text-anchor="middle" dy="0.4em" font-size="0.4">30</text><rect x="-1.29383" y="3.6" width="1.35191" height="0.8" stroke-width="0.03" style="fill:#4860E8;stroke:black"></rect><text x="-0.617873" y="4" text-anchor="middle" dy="0.4em" font-size="0.4">31</text><rect x="-1.17371" y="2.6" width="1.11168" height="0.8" stroke-width="0.03" style="fill:#4860E8;stroke:black"></rect><text x="-0.617873" y="3" text-anchor="middle" dy="0.4em" font-size="0.4">32</text><rect x="0.258083" y="3.6" width="0.864946" height="0.8" stroke-width="0.03" style="fill:#4860E8;stroke:black"></rect><text x="0.690556" y="4" text-anchor="middle" dy="0.4em" font-size="0.4">33</text><rect x="0.261191" y="2.6" width="0.858731" height="0.8" stroke-width="0.03" style="fill:#4860E8;stroke:black"></rect><text x="0.690556" y="3" text-anchor="middle" dy="0.4em" font-size="0.4">34</text><rect x="1.32303" y="3.6" width="1.78651" height="0.8" stroke-width="0.03" style="fill:#4860E8;stroke:black"></rect><text x="2.21628" y="4" text-anchor="middle" dy="0.4em" font-size="0.4">35</text><rect x="3.30954" y="3.6" width="0.550499" height="0.8" stroke-width="0.03" style="fill:#4860E8;stroke:black"></rect><text x="3.58479" y="4" text-anchor="middle" dy="0.4em" font-size="0.4">36</text><rect x="4.06004" y="3.6" width="0.654229" height="0.8" stroke-width="0.03" style="fill:#4860E8;stroke:black"></rect><text x="4.38715" y="4" text-anchor="middle" dy="0.4em" font-size="0.4">37</text><rect x="2.50498" y="2.6" width="1.59347" height="0.8" stroke-width="0.03" style="fill:#4860E8;stroke:black"></rect><text x="3.30172" y="3" text-anchor="middle" dy="0.4em" font-size="0.4">38</text><rect x="4.29846" y="2.6" width="1.49515" height="0.8" stroke-width="0.03" style="fill:#4860E8;stroke:black"></rect><text x="5.04603" y="3" text-anchor="middle" dy="0.4em" font-size="0.4">39</text><rect x="0.976255" y="1.6" width="1.04598" height="0.8" stroke-width="0.03" style="fill:#4860E8;stroke:black"></rect><text x="1.49924" y="2" text-anchor="middle" dy="0.4em" font-size="0.4">40</text><rect x="0.95242" y="0.6" width="1.09365" height="0.8" stroke-width="0.03" style="fill:#4860E8;stroke:black"></rect><text x="1.49924" y="1" text-anchor="middle" dy="0.4em" font-size="0.4">41</text><rect x="3.70376" y="1.6" width="1.05806" height="0.8" stroke-width="0.03" style="fill:#4860E8;stroke:black"></rect><text x="4.23279" y="2" text-anchor="middle" dy="0.4em" font-size="0.4">42</text><rect x="3.64059" y="0.6" width="1.1844" height="0.8" stroke-width="0.03" style="fill:#4860E8;stroke:black"></rect><text x="4.23279" y="1" text-anchor="middle" dy="0.4em" font-size="0.4">43</text><rect x="5.9936" y="2.6" width="0.924093" height="0.8" stroke-width="0.03" style="fill:#4860E8;stroke:black"></rect><text x="6.45565" y="3" text-anchor="middle" dy="0.4em" font-size="0.4">44</text><rect x="7.1177" y="2.6" width="1.21658" height="0.8" stroke-width="0.03" style="fill:#4860E8;stroke:black"></rect><text x="7.72599" y="3" text-anchor="middle" dy="0.4em" font-size="0.4">45</text><rect x="6.68428" y="1.6" width="0.813082" height="0.8" stroke-width="0.03" style="fill:#4860E8;stroke:black"></rect><text x="7.09082" y="2" text-anchor="middle" dy="0.4em" font-size="0.4">46</text><rect x="6.41952" y="0.6" width="1.34259" height="0.8" stroke-width="0.03" style="fill:#4860E8;stroke:black"></rect><text x="7.09082" y="1" text-anchor="middle" dy="0.4em" font-size="0.4">47</text><rect x="7.96212" y="0.6" width="1.76851" height="0.8" stroke-width="0.03" style="fill:#4860E8;stroke:black"></rect><text x="8.84637" y="1" text-anchor="middle" dy="0.4em" font-size="0.4">48</text><rect x="9.93063" y="0.6" width="1.30956" height="0.8" stroke-width="0.03" style="fill:#4860E8;stroke:black"></rect><text x="10.5854" y="1" text-anchor="middle" dy="0.4em" font-size="0.4">49</text><rect x="-0.362876" y="-0.4" width="0.725751" height="0.8" stroke-width="0.03" style="fill:#4860E8;stroke:black"></rect><text x="0" y="0" text-anchor="middle" dy="0.4em" font-size="0.4">50</text></svg>
