<!DOCTYPE svg PUBLIC "-//W3C//DTD SVG 1.1//EN"
"http://www.w3.org/Graphics/SVG/1.1/DTD/svg11.dtd">
<svg xmlns="http://www.w3.org/2000/svg" xmlns:xlink="http://www.w3.org/1999/xlink" width="1200px" height="700px" viewBox="-34.37290626354811 -1 56.6141816533675524 13"><title>Tree layout -- Seed: 324044555</title><path d="M0.000000,0.000000 L-21.241275,1.000000" stroke="black" stroke-width="0.06" fill="none"></path><path d="M0.000000,0.000000 L-6.890732,1.000000" stroke="black" stroke-width="0.06" fill="none"></path><path d="M0.000000,0.000000 L6.928926,1.000000" stroke="black" stroke-width="0.06" fill="none"></path><path d="M0.000000,0.000000 L16.245912,1.000000" stroke="black" stroke-width="0.06" fill="none"></path><path d="M0.000000,0.000000 L19.387417,1.000000" stroke="black" stroke-width="0.06" fill="none"></path><path d="M0.000000,0.000000 L21.241275,1.000000" stroke="black" stroke-width="0.06" fill="none"></path><path d="M-21.241275,1.000000 L-33.372906,2.000000" stroke="black" stroke-width="0.06" fill="none"></path><path d="M-21.241275,1.000000 L-31.719867,2.000000" stroke="black" stroke-width="0.06" fill="none"></path><path d="M-21.241275,1.000000 L-29.455099,2.000000" stroke="black" stroke-width="0.06" fill="none"></path><path d="M-21.241275,1.000000 L-19.951550,2.000000" stroke="black" stroke-width="0.06" fill="none"></path><path d="M-21.241275,1.000000 L-16.235997,2.000000" stroke="black" stroke-width="0.06" fill="none"></path><path d="M-21.241275,1.000000 L-12.257547,2.000000" stroke="black" stroke-width="0.06" fill="none"></path><path d="M-21.241275,1.000000 L-10.895287,2.000000" stroke="black" stroke-width="0.06" fill="none"></path><path d="M-21.241275,1.000000 L-9.109645,2.000000" stroke="black" stroke-width="0.06" fill="none"></path><path d="M-31.719867,2.000000 L-32.431764,3.000000" stroke="black" stroke-width="0.06" fill="none"></path><path d="M-31.719867,2.000000 L-31.007969,3.000000" stroke="black" stroke-width="0.06" fill="none"></path><path d="M-32.431764,3.000000 L-32.431764,4.000000" stroke="black" stroke-width="0.06" fill="none"></path><path d="M-32.431764,4.000000 L-32.431764,5.000000" stroke="black" stroke-width="0.06" fill="none"></path><path d="M-29.455099,2.000000 L-29.455099,3.000000" stroke="black" stroke-width="0.06" fill="none"></path><path d="M-29.455099,3.000000 L-29.455099,4.000000" stroke="black" stroke-width="0.06" fill="none"></path><path d="M-29.455099,4.000000 L-29.455099,5.000000" stroke="black" stroke-width="0.06" fill="none"></path><path d="M-19.951550,2.000000 L-26.065787,3.000000" stroke="black" stroke-width="0.06" fill="none"></path><path d="M-19.951550,2.000000 L-20.343159,3.000000" stroke="black" stroke-width="0.06" fill="none"></path><path d="M-19.951550,2.000000 L-15.971500,3.000000" stroke="black" stroke-width="0.06" fill="none"></path><path d="M-19.951550,2.000000 L-15.109453,3.000000" stroke="black" stroke-width="0.06" fill="none"></path><path d="M-19.951550,2.000000 L-13.837314,3.000000" stroke="black" stroke-width="0.06" fill="none"></path><path d="M-26.065787,3.000000 L-27.662349,4.000000" stroke="black" stroke-width="0.06" fill="none"></path><path d="M-26.065787,3.000000 L-25.846185,4.000000" stroke="black" stroke-width="0.06" fill="none"></path><path d="M-26.065787,3.000000 L-24.469224,4.000000" stroke="black" stroke-width="0.06" fill="none"></path><path d="M-27.662349,4.000000 L-27.662349,5.000000" stroke="black" stroke-width="0.06" fill="none"></path><path d="M-20.343159,3.000000 L-23.064329,4.000000" stroke="black" stroke-width="0.06" fill="none"></path><path d="M-20.343159,3.000000 L-21.099333,4.000000" stroke="black" stroke-width="0.06" fill="none"></path><path d="M-20.343159,3.000000 L-19.320397,4.000000" stroke="black" stroke-width="0.06" fill="none"></path><path d="M-20.343159,3.000000 L-17.621989,4.000000" stroke="black" stroke-width="0.06" fill="none"></path><path d="M-23.064329,4.000000 L-23.064329,5.000000" stroke="black" stroke-width="0.06" fill="none"></path><path d="M-21.099333,4.000000 L-21.099333,5.000000" stroke="black" stroke-width="0.06" fill="none"></path><path d="M-15.971500,3.000000 L-15.971500,4.000000" stroke="black" stroke-width="0.06" fill="none"></path><path d="M-12.257547,2.000000 L-12.257547,3.000000" stroke="black" stroke-width="0.06" fill="none"></path><path d="M-6.890732,1.000000 L-7.615346,2.000000" stroke="black" stroke-width="0.06" fill="none"></path><path d="M-6.890732,1.000000 L-6.166117,2.000000" stroke="black" stroke-width="0.06" fill="none"></path><path d="M-7.615346,2.000000 L-7.615346,3.000000" stroke="black" stroke-width="0.06" fill="none"></path><path d="M-7.615346,3.000000 L-7.615346,4.000000" stroke="black" stroke-width="0.06" fill="none"></path><path d="M-7.615346,4.000000 L-7.615346,5.000000" stroke="black" stroke-width="0.06" fill="none"></path><path d="M6.928926,1.000000 L0.154883,2.000000" stroke="black" stroke-width="0.06" fill="none"></path><path d="M6.928926,1.000000 L6.842944,2.000000" stroke="black" stroke-width="0.06" fill="none"></path><path d="M6.928926,1.000000 L8.427790,2.000000" stroke="black" stroke-width="0.06" fill="none"></path><path d="M6.928926,1.000000 L10.083525,2.000000" stroke="black" stroke-width="0.06" fill="none"></path><path d="M6.928926,1.000000 L12.059098,2.000000" stroke="black" stroke-width="0.06" fill="none"></path><path d="M6.928926,1.000000 L13.702969,2.000000" stroke="black" stroke-width="0.06" fill="none"></path><path d="M0.154883,2.000000 L-5.395853,3.000000" stroke="black" stroke-width="0.06" fill="none"></path><path d="M0.154883,2.000000 L-0.388552,3.000000" stroke="black" stroke-width="0.06" fill="none"></path><path d="M0.154883,2.000000 L1.745837,3.000000" stroke="black" stroke-width="0.06" fill="none"></path><path d="M0.154883,2.000000 L3.406104,3.000000" stroke="black" stroke-width="0.06" fill="none"></path><path d="M0.154883,2.000000 L4.614410,3.000000" stroke="black" stroke-width="0.06" fill="none"></path><path d="M0.154883,2.000000 L5.705619,3.000000" stroke="black" stroke-width="0.06" fill="none"></path><path d="M-5.395853,3.000000 L-5.395853,4.000000" stroke="black" stroke-width="0.06" fill="none"></path><path d="M-5.395853,4.000000 L-6.588257,5.000000" stroke="black" stroke-width="0.06" fill="none"></path><path d="M-5.395853,4.000000 L-5.663566,5.000000" stroke="black" stroke-width="0.06" fill="none"></path><path d="M-5.395853,4.000000 L-4.203449,5.000000" stroke="black" stroke-width="0.06" fill="none"></path><path d="M-6.588257,5.000000 L-9.668577,6.000000" stroke="black" stroke-width="0.06" fill="none"></path><path d="M-6.588257,5.000000 L-8.011591,6.000000" stroke="black" stroke-width="0.06" fill="none"></path><path d="M-6.588257,5.000000 L-5.283710,6.000000" stroke="black" stroke-width="0.06" fill="none"></path><path d="M-6.588257,5.000000 L-3.507938,6.000000" stroke="black" stroke-width="0.06" fill="none"></path><path d="M-9.668577,6.000000 L-9.668577,7.000000" stroke="black" stroke-width="0.06" fill="none"></path><path d="M-8.011591,6.000000 L-8.011591,7.000000" stroke="black" stroke-width="0.06" fill="none"></path><path d="M-8.011591,7.000000 L-8.011591,8.000000" stroke="black" stroke-width="0.06" fill="none"></path><path d="M-8.011591,8.000000 L-8.011591,9.000000" stroke="black" stroke-width="0.06" fill="none"></path><path d="M-8.011591,9.000000 L-8.011591,10.000000" stroke="black" stroke-width="0.06" fill="none"></path><path d="M-8.011591,10.000000 L-8.011591,11.000000" stroke="black" stroke-width="0.06" fill="none"></path><path d="M-5.283710,6.000000 L-6.057734,7.000000" stroke="black" stroke-width="0.06" fill="none"></path><path d="M-5.283710,6.000000 L-4.509686,7.000000" stroke="black" stroke-width="0.06" fill="none"></path><path d="M-6.057734,7.000000 L-6.057734,8.000000" stroke="black" stroke-width="0.06" fill="none"></path><path d="M-6.057734,8.000000 L-6.057734,9.000000" stroke="black" stroke-width="0.06" fill="none"></path><path d="M-0.388552,3.000000 L-0.388552,4.000000" stroke="black" stroke-width="0.06" fill="none"></path><path d="M-0.388552,4.000000 L-2.163713,5.000000" stroke="black" stroke-width="0.06" fill="none"></path><path d="M-0.388552,4.000000 L-0.313225,5.000000" stroke="black" stroke-width="0.06" fill="none"></path><path d="M-0.388552,4.000000 L1.386610,5.000000" stroke="black" stroke-width="0.06" fill="none"></path><path d="M-2.163713,5.000000 L-2.163713,6.000000" stroke="black" stroke-width="0.06" fill="none"></path><path d="M-2.163713,6.000000 L-2.163713,7.000000" stroke="black" stroke-width="0.06" fill="none"></path><path d="M-2.163713,7.000000 L-2.163713,8.000000" stroke="black" stroke-width="0.06" fill="none"></path><path d="M1.745837,3.000000 L1.745837,4.000000" stroke="black" stroke-width="0.06" fill="none"></path><path d="M4.614410,3.000000 L4.614410,4.000000" stroke="black" stroke-width="0.06" fill="none"></path><path d="M6.842944,2.000000 L6.842944,3.000000" stroke="black" stroke-width="0.06" fill="none"></path><path d="M6.842944,3.000000 L6.842944,4.000000" stroke="black" stroke-width="0.06" fill="none"></path><path d="M6.842944,4.000000 L6.842944,5.000000" stroke="black" stroke-width="0.06" fill="none"></path><path d="M6.842944,5.000000 L6.842944,6.000000" stroke="black" stroke-width="0.06" fill="none"></path><path d="M6.842944,6.000000 L6.842944,7.000000" stroke="black" stroke-width="0.06" fill="none"></path><path d="M8.427790,2.000000 L8.427790,3.000000" stroke="black" stroke-width="0.06" fill="none"></path><path d="M8.427790,3.000000 L8.427790,4.000000" stroke="black" stroke-width="0.06" fill="none"></path><path d="M8.427790,4.000000 L8.427790,5.000000" stroke="black" stroke-width="0.06" fill="none"></path><path d="M16.245912,1.000000 L14.737316,2.000000" stroke="black" stroke-width="0.06" fill="none"></path><path d="M16.245912,1.000000 L16.054869,2.000000" stroke="black" stroke-width="0.06" fill="none"></path><path d="M16.245912,1.000000 L17.754508,2.000000" stroke="black" stroke-width="0.06" fill="none"></path><path d="M14.737316,2.000000 L14.737316,3.000000" stroke="black" stroke-width="0.06" fill="none"></path><path d="M19.387417,1.000000 L19.387417,2.000000" stroke="black" stroke-width="0.06" fill="none"></path><path d="M19.387417,2.000000 L19.387417,3.000000" stroke="black" stroke-width="0.06" fill="none"></path><path d="M19.387417,3.000000 L17.962270,4.000000" stroke="black" stroke-width="0.06" fill="none"></path><path d="M19.387417,3.000000 L19.514854,4.000000" stroke="black" stroke-width="0.06" fill="none"></path><path d="M19.387417,3.000000 L20.812565,4.000000" stroke="black" stroke-width="0.06" fill="none"></path><rect x="-34.2123" y="1.6" width="1.6788" height="0.8" stroke-width="0.03" style="fill:#4860E8;stroke:black"></rect><text x="-33.3729" y="2" text-anchor="middle" dy="0.4em" font-size="0.4">1</text><rect x="-33.1363" y="4.6" width="1.409" height="0.8" stroke-width="0.03" style="fill:#4860E8;stroke:black"></rect><text x="-32.4318" y="5" text-anchor="middle" dy="0.4em" font-size="0.4">2</text><rect x="-32.825" y="3.6" width="0.786466" height="0.8" stroke-width="0.03" style="fill:#4860E8;stroke:black"></rect><text x="-32.4318" y="4" text-anchor="middle" dy="0.4em" font-size="0.4">3</text><rect x="-33.2145" y="2.6" width="1.56548" height="0.8" stroke-width="0.03" style="fill:#4860E8;stroke:black"></rect><text x="-32.4318" y="3" text-anchor="middle" dy="0.4em" font-size="0.4">4</text><rect x="-31.449" y="2.6" width="0.882114" height="0.8" stroke-width="0.03" style="fill:#4860E8;stroke:black"></rect><text x="-31.008" y="3" text-anchor="middle" dy="0.4em" font-size="0.4">5</text><rect x="-32.3335" y="1.6" width="1.22728" height="0.8" stroke-width="0.03" style="fill:#4860E8;stroke:black"></rect><text x="-31.7199" y="2" text-anchor="middle" dy="0.4em" font-size="0.4">6</text><rect x="-29.9293" y="4.6" width="0.948357" height="0.8" stroke-width="0.03" style="fill:#4860E8;stroke:black"></rect><text x="-29.4551" y="5" text-anchor="middle" dy="0.4em" font-size="0.4">7</text><rect x="-30.3235" y="3.6" width="1.73682" height="0.8" stroke-width="0.03" style="fill:#4860E8;stroke:black"></rect><text x="-29.4551" y="4" text-anchor="middle" dy="0.4em" font-size="0.4">8</text><rect x="-30.3669" y="2.6" width="1.82363" height="0.8" stroke-width="0.03" style="fill:#4860E8;stroke:black"></rect><text x="-29.4551" y="3" text-anchor="middle" dy="0.4em" font-size="0.4">9</text><rect x="-30.0115" y="1.6" width="1.11272" height="0.8" stroke-width="0.03" style="fill:#4860E8;stroke:black"></rect><text x="-29.4551" y="2" text-anchor="middle" dy="0.4em" font-size="0.4">10</text><rect x="-28.1571" y="4.6" width="0.989449" height="0.8" stroke-width="0.03" style="fill:#4860E8;stroke:black"></rect><text x="-27.6623" y="5" text-anchor="middle" dy="0.4em" font-size="0.4">11</text><rect x="-28.3867" y="3.6" width="1.44868" height="0.8" stroke-width="0.03" style="fill:#4860E8;stroke:black"></rect><text x="-27.6623" y="4" text-anchor="middle" dy="0.4em" font-size="0.4">12</text><rect x="-26.738" y="3.6" width="1.78365" height="0.8" stroke-width="0.03" style="fill:#4860E8;stroke:black"></rect><text x="-25.8462" y="4" text-anchor="middle" dy="0.4em" font-size="0.4">13</text><rect x="-24.7544" y="3.6" width="0.570272" height="0.8" stroke-width="0.03" style="fill:#4860E8;stroke:black"></rect><text x="-24.4692" y="4" text-anchor="middle" dy="0.4em" font-size="0.4">14</text><rect x="-26.578" y="2.6" width="1.02442" height="0.8" stroke-width="0.03" style="fill:#4860E8;stroke:black"></rect><text x="-26.0658" y="3" text-anchor="middle" dy="0.4em" font-size="0.4">15</text><rect x="-23.4088" y="4.6" width="0.688924" height="0.8" stroke-width="0.03" style="fill:#4860E8;stroke:black"></rect><text x="-23.0643" y="5" text-anchor="middle" dy="0.4em" font-size="0.4">16</text><rect x="-23.9841" y="3.6" width="1.83952" height="0.8" stroke-width="0.03" style="fill:#4860E8;stroke:black"></rect><text x="-23.0643" y="4" text-anchor="middle" dy="0.4em" font-size="0.4">17</text><rect x="-21.9373" y="4.6" width="1.67593" height="0.8" stroke-width="0.03" style="fill:#4860E8;stroke:black"></rect><text x="-21.0993" y="5" text-anchor="middle" dy="0.4em" font-size="0.4">18</text><rect x="-21.9446" y="3.6" width="1.69047" height="0.8" stroke-width="0.03" style="fill:#4860E8;stroke:black"></rect><text x="-21.0993" y="4" text-anchor="middle" dy="0.4em" font-size="0.4">19</text><rect x="-20.0541" y="3.6" width="1.4674" height="0.8" stroke-width="0.03" style="fill:#4860E8;stroke:black"></rect><text x="-19.3204" y="4" text-anchor="middle" dy="0.4em" font-size="0.4">20</text><rect x="-18.3867" y="3.6" width="1.52942" height="0.8" stroke-width="0.03" style="fill:#4860E8;stroke:black"></rect><text x="-17.622" y="4" text-anchor="middle" dy="0.4em" font-size="0.4">21</text><rect x="-20.8339" y="2.6" width="0.981528" height="0.8" stroke-width="0.03" style="fill:#4860E8;stroke:black"></rect><text x="-20.3432" y="3" text-anchor="middle" dy="0.4em" font-size="0.4">22</text><rect x="-16.6573" y="3.6" width="1.37156" height="0.8" stroke-width="0.03" style="fill:#4860E8;stroke:black"></rect><text x="-15.9715" y="4" text-anchor="middle" dy="0.4em" font-size="0.4">23</text><rect x="-16.3095" y="2.6" width="0.675961" height="0.8" stroke-width="0.03" style="fill:#4860E8;stroke:black"></rect><text x="-15.9715" y="3" text-anchor="middle" dy="0.4em" font-size="0.4">24</text><rect x="-15.4335" y="2.6" width="0.648132" height="0.8" stroke-width="0.03" style="fill:#4860E8;stroke:black"></rect><text x="-15.1095" y="3" text-anchor="middle" dy="0.4em" font-size="0.4">25</text><rect x="-14.5854" y="2.6" width="1.49615" height="0.8" stroke-width="0.03" style="fill:#4860E8;stroke:black"></rect><text x="-13.8373" y="3" text-anchor="middle" dy="0.4em" font-size="0.4">26</text><rect x="-20.2412" y="1.6" width="0.579356" height="0.8" stroke-width="0.03" style="fill:#4860E8;stroke:black"></rect><text x="-19.9516" y="2" text-anchor="middle" dy="0.4em" font-size="0.4">27</text><rect x="-16.7316" y="1.6" width="0.991248" height="0.8" stroke-width="0.03" style="fill:#4860E8;stroke:black"></rect><text x="-16.236" y="2" text-anchor="middle" dy="0.4em" font-size="0.4">28</text><rect x="-12.8892" y="2.6" width="1.26338" height="0.8" stroke-width="0.03" style="fill:#4860E8;stroke:black"></rect><text x="-12.2575" y="3" text-anchor="middle" dy="0.4em" font-size="0.4">29</text><rect x="-12.8101" y="1.6" width="1.10515" height="0.8" stroke-width="0.03" style="fill:#4860E8;stroke:black"></rect><text x="-12.2575" y="2" text-anchor="middle" dy="0.4em" font-size="0.4">30</text><rect x="-11.505" y="1.6" width="1.21937" height="0.8" stroke-width="0.03" style="fill:#4860E8;stroke:black"></rect><text x="-10.8953" y="2" text-anchor="middle" dy="0.4em" font-size="0.4">31</text><rect x="-10.0856" y="1.6" width="1.95192" height="0.8" stroke-width="0.03" style="fill:#4860E8;stroke:black"></rect><text x="-9.10964" y="2" text-anchor="middle" dy="0.4em" font-size="0.4">32</text><rect x="-21.937" y="0.6" width="1.39139" height="0.8" stroke-width="0.03" style="fill:#4860E8;stroke:black"></rect><text x="-21.2413" y="1" text-anchor="middle" dy="0.4em" font-size="0.4">33</text><rect x="-7.99793" y="4.6" width="0.765177" height="0.8" stroke-width="0.03" style="fill:#4860E8;stroke:black"></rect><text x="-7.61535" y="5" text-anchor="middle" dy="0.4em" font-size="0.4">34</text><rect x="-8.05546" y="3.6" width="0.880236" height="0.8" stroke-width="0.03" style="fill:#4860E8;stroke:black"></rect><text x="-7.61535" y="4" text-anchor="middle" dy="0.4em" font-size="0.4">35</text><rect x="-8.28795" y="2.6" width="1.34521" height="0.8" stroke-width="0.03" style="fill:#4860E8;stroke:black"></rect><text x="-7.61535" y="3" text-anchor="middle" dy="0.4em" font-size="0.4">36</text><rect x="-7.93369" y="1.6" width="0.636681" height="0.8" stroke-width="0.03" style="fill:#4860E8;stroke:black"></rect><text x="-7.61535" y="2" text-anchor="middle" dy="0.4em" font-size="0.4">37</text><rect x="-7.09701" y="1.6" width="1.86178" height="0.8" stroke-width="0.03" style="fill:#4860E8;stroke:black"></rect><text x="-6.16612" y="2" text-anchor="middle" dy="0.4em" font-size="0.4">38</text><rect x="-7.54426" y="0.6" width="1.30707" height="0.8" stroke-width="0.03" style="fill:#4860E8;stroke:black"></rect><text x="-6.89073" y="1" text-anchor="middle" dy="0.4em" font-size="0.4">39</text><rect x="-10.6068" y="6.6" width="1.87638" height="0.8" stroke-width="0.03" style="fill:#4860E8;stroke:black"></rect><text x="-9.66858" y="7" text-anchor="middle" dy="0.4em" font-size="0.4">40</text><rect x="-10.3809" y="5.6" width="1.42457" height="0.8" stroke-width="0.03" style="fill:#4860E8;stroke:black"></rect><text x="-9.66858" y="6" text-anchor="middle" dy="0.4em" font-size="0.4">41</text><rect x="-8.69831" y="10.6" width="1.37343" height="0.8" stroke-width="0.03" style="fill:#4860E8;stroke:black"></rect><text x="-8.01159" y="11" text-anchor="middle" dy="0.4em" font-size="0.4">42</text><rect x="-8.78666" y="9.6" width="1.55014" height="0.8" stroke-width="0.03" style="fill:#4860E8;stroke:black"></rect><text x="-8.01159" y="10" text-anchor="middle" dy="0.4em" font-size="0.4">43</text><rect x="-8.81122" y="8.6" width="1.59925" height="0.8" stroke-width="0.03" style="fill:#4860E8;stroke:black"></rect><text x="-8.01159" y="9" text-anchor="middle" dy="0.4em" font-size="0.4">44</text><rect x="-8.91928" y="7.6" width="1.81538" height="0.8" stroke-width="0.03" style="fill:#4860E8;stroke:black"></rect><text x="-8.01159" y="8" text-anchor="middle" dy="0.4em" font-size="0.4">45</text><rect x="-8.43841" y="6.6" width="0.853629" height="0.8" stroke-width="0.03" style="fill:#4860E8;stroke:black"></rect><text x="-8.01159" y="7" text-anchor="middle" dy="0.4em" font-size="0.4">46</text><rect x="-8.75629" y="5.6" width="1.4894" height="0.8" stroke-width="0.03" style="fill:#4860E8;stroke:black"></rect><text x="-8.01159" y="6" text-anchor="middle" dy="0.4em" font-size="0.4">47</text><rect x="-6.81002" y="8.6" width="1.50457" height="0.8" stroke-width="0.03" style="fill:#4860E8;stroke:black"></rect><text x="-6.05773" y="9" text-anchor="middle" dy="0.4em" font-size="0.4">48</text><rect x="-6.9039" y="7.6" width="1.69233" height="0.8" stroke-width="0.03" style="fill:#4860E8;stroke:black"></rect><text x="-6.05773" y="8" text-anchor="middle" dy="0.4em" font-size="0.4">49</text><rect x="-6.64419" y="6.6" width="1.1729" height="0.8" stroke-width="0.03" style="fill:#4860E8;stroke:black"></rect><text x="-6.05773" y="7" text-anchor="middle" dy="0.4em" font-size="0.4">50</text><rect x="-5.27128" y="6.6" width="1.52319" height="0.8" stroke-width="0.03" style="fill:#4860E8;stroke:black"></rect><text x="-4.50969" y="7" text-anchor="middle" dy="0.4em" font-size="0.4">51</text><rect x="-6.13013" y="5.6" width="1.69285" height="0.8" stroke-width="0.03" style="fill:#4860E8;stroke:black"></rect><text x="-5.28371" y="6" text-anchor="middle" dy="0.4em" font-size="0.4">52</text><rect x="-4.23729" y="5.6" width="1.4587" height="0.8" stroke-width="0.03" style="fill:#4860E8;stroke:black"></rect><text x="-3.50794" y="6" text-anchor="middle" dy="0.4em" font-size="0.4">53</text><rect x="-7.03276" y="4.6" width="0.889" height="0.8" stroke-width="0.03" style="fill:#4860E8;stroke:black"></rect><text x="-6.58826" y="5" text-anchor="middle" dy="0.4em" font-size="0.4">54</text><rect x="-5.94376" y="4.6" width="0.560382" height="0.8" stroke-width="0.03" style="fill:#4860E8;stroke:black"></rect><text x="-5.66357" y="5" text-anchor="middle" dy="0.4em" font-size="0.4">55</text><rect x="-5.18337" y="4.6" width="1.95985" height="0.8" stroke-width="0.03" style="fill:#4860E8;stroke:black"></rect><text x="-4.20345" y="5" text-anchor="middle" dy="0.4em" font-size="0.4">56</text><rect x="-5.90311" y="3.6" width="1.01451" height="0.8" stroke-width="0.03" style="fill:#4860E8;stroke:black"></rect><text x="-5.39585" y="4" text-anchor="middle" dy="0.4em" font-size="0.4">57</text><rect x="-6.30191" y="2.6" width="1.8121" height="0.8" stroke-width="0.03" style="fill:#4860E8;stroke:black"></rect><text x="-5.39585" y="3" text-anchor="middle" dy="0.4em" font-size="0.4">58</text><rect x="-3.07366" y="7.6" width="1.8199" height="0.8" stroke-width="0.03" style="fill:#4860E8;stroke:black"></rect><text x="-2.16371" y="8" text-anchor="middle" dy="0.4em" font-size="0.4">59</text><rect x="-2.88056" y="6.6" width="1.43368" height="0.8" stroke-width="0.03" style="fill:#4860E8;stroke:black"></rect><text x="-2.16371" y="7" text-anchor="middle" dy="0.4em" font-size="0.4">60</text><rect x="-2.57859" y="5.6" width="0.829753" height="0.8" stroke-width="0.03" style="fill:#4860E8;stroke:black"></rect><text x="-2.16371" y="6" text-anchor="middle" dy="0.4em" font-size="0.4">61</text><rect x="-2.84751" y="4.6" width="1.36759" height="0.8" stroke-width="0.03" style="fill:#4860E8;stroke:black"></rect><text x="-2.16371" y="5" text-anchor="middle" dy="0.4em" font-size="0.4">62</text><rect x="-1.27992" y="4.6" width="1.93339" height="0.8" stroke-width="0.03" style="fill:#4860E8;stroke:black"></rect><text x="-0.313225" y="5" text-anchor="middle" dy="0.4em" font-size="0.4">63</text><rect x="0.85347" y="4.6" width="1.06628" height="0.8" stroke-width="0.03" style="fill:#4860E8;stroke:black"></rect><text x="1.38661" y="5" text-anchor="middle" dy="0.4em" font-size="0.4">64</text><rect x="-0.892968" y="3.6" width="1.00883" height="0.8" stroke-width="0.03" style="fill:#4860E8;stroke:black"></rect><text x="-0.388552" y="4" text-anchor="middle" dy="0.4em" font-size="0.4">65</text><rect x="-1.38268" y="2.6" width="1.98825" height="0.8" stroke-width="0.03" style="fill:#4860E8;stroke:black"></rect><text x="-0.388552" y="3" text-anchor="middle" dy="0.4em" font-size="0.4">66</text><rect x="1.14969" y="3.6" width="1.19229" height="0.8" stroke-width="0.03" style="fill:#4860E8;stroke:black"></rect><text x="1.74584" y="4" text-anchor="middle" dy="0.4em" font-size="0.4">67</text><rect x="0.805574" y="2.6" width="1.88053" height="0.8" stroke-width="0.03" style="fill:#4860E8;stroke:black"></rect><text x="1.74584" y="3" text-anchor="middle" dy="0.4em" font-size="0.4">68</text><rect x="2.8861" y="2.6" width="1.04001" height="0.8" stroke-width="0.03" style="fill:#4860E8;stroke:black"></rect><text x="3.4061" y="3" text-anchor="middle" dy="0.4em" font-size="0.4">69</text><rect x="3.91777" y="3.6" width="1.39328" height="0.8" stroke-width="0.03" style="fill:#4860E8;stroke:black"></rect><text x="4.61441" y="4" text-anchor="middle" dy="0.4em" font-size="0.4">70</text><rect x="4.12611" y="2.6" width="0.976603" height="0.8" stroke-width="0.03" style="fill:#4860E8;stroke:black"></rect><text x="4.61441" y="3" text-anchor="middle" dy="0.4em" font-size="0.4">71</text><rect x="5.30271" y="2.6" width="0.805816" height="0.8" stroke-width="0.03" style="fill:#4860E8;stroke:black"></rect><text x="5.70562" y="3" text-anchor="middle" dy="0.4em" font-size="0.4">72</text><rect x="-0.707269" y="1.6" width="1.7243" height="0.8" stroke-width="0.03" style="fill:#4860E8;stroke:black"></rect><text x="0.154883" y="2" text-anchor="middle" dy="0.4em" font-size="0.4">73</text><rect x="6.38785" y="6.6" width="0.91019" height="0.8" stroke-width="0.03" style="fill:#4860E8;stroke:black"></rect><text x="6.84294" y="7" text-anchor="middle" dy="0.4em" font-size="0.4">74</text><rect x="6.20149" y="5.6" width="1.2829" height="0.8" stroke-width="0.03" style="fill:#4860E8;stroke:black"></rect><text x="6.84294" y="6" text-anchor="middle" dy="0.4em" font-size="0.4">75</text><rect x="6.47528" y="4.6" width="0.735333" height="0.8" stroke-width="0.03" style="fill:#4860E8;stroke:black"></rect><text x="6.84294" y="5" text-anchor="middle" dy="0.4em" font-size="0.4">76</text><rect x="6.47007" y="3.6" width="0.745738" height="0.8" stroke-width="0.03" style="fill:#4860E8;stroke:black"></rect><text x="6.84294" y="4" text-anchor="middle" dy="0.4em" font-size="0.4">77</text><rect x="6.30853" y="2.6" width="1.06883" height="0.8" stroke-width="0.03" style="fill:#4860E8;stroke:black"></rect><text x="6.84294" y="3" text-anchor="middle" dy="0.4em" font-size="0.4">78</text><rect x="6.06092" y="1.6" width="1.56405" height="0.8" stroke-width="0.03" style="fill:#4860E8;stroke:black"></rect><text x="6.84294" y="2" text-anchor="middle" dy="0.4em" font-size="0.4">79</text><rect x="7.60105" y="4.6" width="1.65349" height="0.8" stroke-width="0.03" style="fill:#4860E8;stroke:black"></rect><text x="8.42779" y="5" text-anchor="middle" dy="0.4em" font-size="0.4">80</text><rect x="7.9889" y="3.6" width="0.877786" height="0.8" stroke-width="0.03" style="fill:#4860E8;stroke:black"></rect><text x="8.42779" y="4" text-anchor="middle" dy="0.4em" font-size="0.4">81</text><rect x="7.97023" y="2.6" width="0.915125" height="0.8" stroke-width="0.03" style="fill:#4860E8;stroke:black"></rect><text x="8.42779" y="3" text-anchor="middle" dy="0.4em" font-size="0.4">82</text><rect x="7.82497" y="1.6" width="1.20564" height="0.8" stroke-width="0.03" style="fill:#4860E8;stroke:black"></rect><text x="8.42779" y="2" text-anchor="middle" dy="0.4em" font-size="0.4">83</text><rect x="9.23061" y="1.6" width="1.70583" height="0.8" stroke-width="0.03" style="fill:#4860E8;stroke:black"></rect><text x="10.0835" y="2" text-anchor="middle" dy="0.4em" font-size="0.4">84</text><rect x="11.1364" y="1.6" width="1.84531" height="0.8" stroke-width="0.03" style="fill:#4860E8;stroke:black"></rect><text x="12.0591" y="2" text-anchor="middle" dy="0.4em" font-size="0.4">85</text><rect x="13.1818" y="1.6" width="1.04243" height="0.8" stroke-width="0.03" style="fill:#4860E8;stroke:black"></rect><text x="13.703" y="2" text-anchor="middle" dy="0.4em" font-size="0.4">86</text><rect x="6.1041" y="0.6" width="1.64965" height="0.8" stroke-width="0.03" style="fill:#4860E8;stroke:black"></rect><text x="6.92893" y="1" text-anchor="middle" dy="0.4em" font-size="0.4">87</text><rect x="14.0235" y="2.6" width="1.42763" height="0.8" stroke-width="0.03" style="fill:#4860E8;stroke:black"></rect><text x="14.7373" y="3" text-anchor="middle" dy="0.4em" font-size="0.4">88</text><rect x="14.4242" y="1.6" width="0.626264" height="0.8" stroke-width="0.03" style="fill:#4860E8;stroke:black"></rect><text x="14.7373" y="2" text-anchor="middle" dy="0.4em" font-size="0.4">89</text><rect x="15.2504" y="1.6" width="1.60884" height="0.8" stroke-width="0.03" style="fill:#4860E8;stroke:black"></rect><text x="16.0549" y="2" text-anchor="middle" dy="0.4em" font-size="0.4">90</text><rect x="17.0593" y="1.6" width="1.39044" height="0.8" stroke-width="0.03" style="fill:#4860E8;stroke:black"></rect><text x="17.7545" y="2" text-anchor="middle" dy="0.4em" font-size="0.4">91</text><rect x="15.5831" y="0.6" width="1.32562" height="0.8" stroke-width="0.03" style="fill:#4860E8;stroke:black"></rect><text x="16.2459" y="1" text-anchor="middle" dy="0.4em" font-size="0.4">92</text><rect x="17.2107" y="3.6" width="1.50315" height="0.8" stroke-width="0.03" style="fill:#4860E8;stroke:black"></rect><text x="17.9623" y="4" text-anchor="middle" dy="0.4em" font-size="0.4">93</text><rect x="18.9138" y="3.6" width="1.20202" height="0.8" stroke-width="0.03" style="fill:#4860E8;stroke:black"></rect><text x="19.5149" y="4" text-anchor="middle" dy="0.4em" font-size="0.4">94</text><rect x="20.3159" y="3.6" width="0.993404" height="0.8" stroke-width="0.03" style="fill:#4860E8;stroke:black"></rect><text x="20.8126" y="4" text-anchor="middle" dy="0.4em" font-size="0.4">95</text><rect x="18.8285" y="2.6" width="1.11785" height="0.8" stroke-width="0.03" style="fill:#4860E8;stroke:black"></rect><text x="19.3874" y="3" text-anchor="middle" dy="0.4em" font-size="0.4">96</text><rect x="18.6497" y="1.6" width="1.47538" height="0.8" stroke-width="0.03" style="fill:#4860E8;stroke:black"></rect><text x="19.3874" y="2" text-anchor="middle" dy="0.4em" font-size="0.4">97</text><rect x="18.7266" y="0.6" width="1.32168" height="0.8" stroke-width="0.03" style="fill:#4860E8;stroke:black"></rect><text x="19.3874" y="1" text-anchor="middle" dy="0.4em" font-size="0.4">98</text><rect x="20.2483" y="0.6" width="1.98603" height="0.8" stroke-width="0.03" style="fill:#4860E8;stroke:black"></rect><text x="21.2413" y="1" text-anchor="middle" dy="0.4em" font-size="0.4">99</text><rect x="-0.923741" y="-0.4" width="1.84748" height="0.8" stroke-width="0.03" style="fill:#4860E8;stroke:black"></rect><text x="0" y="0" text-anchor="middle" dy="0.4em" font-size="0.4">100</text></svg>
