<!DOCTYPE svg PUBLIC "-//W3C//DTD SVG 1.1//EN"
"http://www.w3.org/Graphics/SVG/1.1/DTD/svg11.dtd">
<svg xmlns="http://www.w3.org/2000/svg" xmlns:xlink="http://www.w3.org/1999/xlink" width="1200px" height="700px" viewBox="0 0 8.63272332855269653 8.63272332855269653"><title>Tree layout -- Seed: 94712140</title><rect x="6.48466" y="5.48337" width="1.28319" height="0.853731" stroke-width="0.03" style="fill:#4860E8;stroke:black"></rect><text x="7.12625" y="5.91024" text-anchor="middle" dy="0.4em" font-size="0.4">1</text><rect x="6.48466" y="5.48337" width="1.28319" height="0.853731" stroke-width="0.03" style="fill:transparent;stroke:black"></rect><rect x="6.48466" y="3.7631" width="1.28319" height="1.72027" stroke-width="0.03" style="fill:#4860E8;stroke:black"></rect><text x="7.12625" y="4.62324" text-anchor="middle" dy="0.4em" font-size="0.4">3</text><rect x="6.48466" y="3.7631" width="1.28319" height="1.72027" stroke-width="0.03" style="fill:transparent;stroke:black"></rect><rect x="7.76785" y="3.7631" width="0.864873" height="2.574" stroke-width="0.03" style="fill:#4860E8;stroke:black"></rect><text x="8.20029" y="5.0501" text-anchor="middle" dy="0.4em" font-size="0.4">5</text><rect x="7.76785" y="3.7631" width="0.864873" height="2.574" stroke-width="0.03" style="fill:transparent;stroke:black"></rect><rect x="6.48466" y="3.7631" width="2.14807" height="2.574" stroke-width="0.03" style="fill:transparent;stroke:black"></rect><rect x="6.48466" y="0" width="1.51122" height="1.51106" stroke-width="0.03" style="fill:#4860E8;stroke:black"></rect><text x="7.24027" y="0.755528" text-anchor="middle" dy="0.4em" font-size="0.4">8</text><rect x="6.48466" y="2.69677" width="1.51122" height="1.06633" stroke-width="0.03" style="fill:#4860E8;stroke:black"></rect><text x="7.24027" y="3.22994" text-anchor="middle" dy="0.4em" font-size="0.4">9</text><rect x="6.48466" y="1.51106" width="1.51122" height="1.18572" stroke-width="0.03" style="fill:#4860E8;stroke:black"></rect><text x="7.24027" y="2.10391" text-anchor="middle" dy="0.4em" font-size="0.4">10</text><rect x="7.99588" y="0" width="0.636843" height="3.7631" stroke-width="0.03" style="fill:#4860E8;stroke:black"></rect><text x="8.3143" y="1.88155" text-anchor="middle" dy="0.4em" font-size="0.4">11</text><rect x="6.48466" y="0" width="2.14807" height="3.7631" stroke-width="0.03" style="fill:transparent;stroke:black"></rect><rect x="7.73952" y="6.3371" width="0.893204" height="2.29562" stroke-width="0.03" style="fill:#4860E8;stroke:black"></rect><text x="8.18612" y="7.48491" text-anchor="middle" dy="0.4em" font-size="0.4">13</text><rect x="7.73952" y="6.3371" width="0.893204" height="2.29562" stroke-width="0.03" style="fill:transparent;stroke:black"></rect><rect x="6.48466" y="7.55556" width="1.25486" height="1.07716" stroke-width="0.03" style="fill:#4860E8;stroke:black"></rect><text x="7.11209" y="8.09414" text-anchor="middle" dy="0.4em" font-size="0.4">15</text><rect x="6.48466" y="7.55556" width="1.25486" height="1.07716" stroke-width="0.03" style="fill:transparent;stroke:black"></rect><rect x="6.48466" y="6.3371" width="1.25486" height="1.21845" stroke-width="0.03" style="fill:#4860E8;stroke:black"></rect><text x="7.11209" y="6.94633" text-anchor="middle" dy="0.4em" font-size="0.4">17</text><rect x="6.48466" y="6.3371" width="1.25486" height="1.21845" stroke-width="0.03" style="fill:transparent;stroke:black"></rect><rect x="6.48466" y="6.3371" width="2.14807" height="2.29562" stroke-width="0.03" style="fill:transparent;stroke:black"></rect><rect x="6.48466" y="0" width="2.14807" height="8.63272" stroke-width="0.03" style="fill:transparent;stroke:black"></rect><rect x="3.6484" y="6.16169" width="2.83626" height="0.731396" stroke-width="0.03" style="fill:#4860E8;stroke:black"></rect><text x="5.06653" y="6.52738" text-anchor="middle" dy="0.4em" font-size="0.4">21</text><rect x="5.90524" y="4.73561" width="0.579413" height="1.42608" stroke-width="0.03" style="fill:#4860E8;stroke:black"></rect><text x="6.19495" y="5.44865" text-anchor="middle" dy="0.4em" font-size="0.4">22</text><rect x="4.85955" y="4.73561" width="1.0457" height="1.42608" stroke-width="0.03" style="fill:#4860E8;stroke:black"></rect><text x="5.3824" y="5.44865" text-anchor="middle" dy="0.4em" font-size="0.4">23</text><rect x="3.6484" y="4.73561" width="1.21115" height="1.42608" stroke-width="0.03" style="fill:#4860E8;stroke:black"></rect><text x="4.25397" y="5.44865" text-anchor="middle" dy="0.4em" font-size="0.4">24</text><rect x="3.6484" y="4.73561" width="2.83626" height="2.15747" stroke-width="0.03" style="fill:transparent;stroke:black"></rect><rect x="4.95931" y="6.89308" width="0.848267" height="1.73964" stroke-width="0.03" style="fill:#4860E8;stroke:black"></rect><text x="5.38344" y="7.7629" text-anchor="middle" dy="0.4em" font-size="0.4">26</text><rect x="3.6484" y="6.89308" width="1.31091" height="1.73964" stroke-width="0.03" style="fill:#4860E8;stroke:black"></rect><text x="4.30385" y="7.7629" text-anchor="middle" dy="0.4em" font-size="0.4">27</text><rect x="5.80758" y="6.89308" width="0.677081" height="1.73964" stroke-width="0.03" style="fill:#4860E8;stroke:black"></rect><text x="6.14612" y="7.7629" text-anchor="middle" dy="0.4em" font-size="0.4">28</text><rect x="3.6484" y="6.89308" width="2.83626" height="1.73964" stroke-width="0.03" style="fill:transparent;stroke:black"></rect><rect x="3.6484" y="1.62726" width="2.83626" height="0.786138" stroke-width="0.03" style="fill:#4860E8;stroke:black"></rect><text x="5.06653" y="2.02033" text-anchor="middle" dy="0.4em" font-size="0.4">30</text><rect x="4.78933" y="0" width="0.882391" height="1.62726" stroke-width="0.03" style="fill:#4860E8;stroke:black"></rect><text x="5.23052" y="0.813632" text-anchor="middle" dy="0.4em" font-size="0.4">31</text><rect x="5.67172" y="0" width="0.812941" height="1.62726" stroke-width="0.03" style="fill:#4860E8;stroke:black"></rect><text x="6.07819" y="0.813632" text-anchor="middle" dy="0.4em" font-size="0.4">32</text><rect x="3.6484" y="0" width="1.14093" height="1.62726" stroke-width="0.03" style="fill:#4860E8;stroke:black"></rect><text x="4.21886" y="0.813632" text-anchor="middle" dy="0.4em" font-size="0.4">33</text><rect x="3.6484" y="0" width="2.83626" height="2.4134" stroke-width="0.03" style="fill:transparent;stroke:black"></rect><rect x="4.77395" y="2.4134" width="0.868332" height="1.59142" stroke-width="0.03" style="fill:#4860E8;stroke:black"></rect><text x="5.20811" y="3.20911" text-anchor="middle" dy="0.4em" font-size="0.4">35</text><rect x="3.6484" y="4.00482" width="2.83626" height="0.730789" stroke-width="0.03" style="fill:#4860E8;stroke:black"></rect><text x="5.06653" y="4.37021" text-anchor="middle" dy="0.4em" font-size="0.4">36</text><rect x="3.6484" y="2.4134" width="1.12555" height="1.59142" stroke-width="0.03" style="fill:#4860E8;stroke:black"></rect><text x="4.21117" y="3.20911" text-anchor="middle" dy="0.4em" font-size="0.4">37</text><rect x="5.64228" y="2.4134" width="0.842378" height="1.59142" stroke-width="0.03" style="fill:#4860E8;stroke:black"></rect><text x="6.06347" y="3.20911" text-anchor="middle" dy="0.4em" font-size="0.4">38</text><rect x="3.6484" y="2.4134" width="2.83626" height="2.32221" stroke-width="0.03" style="fill:transparent;stroke:black"></rect><rect x="3.6484" y="0" width="2.83626" height="8.63272" stroke-width="0.03" style="fill:transparent;stroke:black"></rect><rect x="3.6484" y="0" width="2.83626" height="8.63272" stroke-width="0.03" style="fill:transparent;stroke:black"></rect><rect x="0" y="2.61463" width="1.13053" height="1.79222" stroke-width="0.03" style="fill:#4860E8;stroke:black"></rect><text x="0.565266" y="3.51074" text-anchor="middle" dy="0.4em" font-size="0.4">42</text><rect x="0" y="2.61463" width="1.13053" height="1.79222" stroke-width="0.03" style="fill:transparent;stroke:black"></rect><rect x="3.03771" y="2.61463" width="0.610684" height="1.79222" stroke-width="0.03" style="fill:#4860E8;stroke:black"></rect><text x="3.34306" y="3.51074" text-anchor="middle" dy="0.4em" font-size="0.4">44</text><rect x="3.03771" y="2.61463" width="0.610684" height="1.79222" stroke-width="0.03" style="fill:transparent;stroke:black"></rect><rect x="1.13053" y="2.61463" width="1.10703" height="1.79222" stroke-width="0.03" style="fill:#4860E8;stroke:black"></rect><text x="1.68405" y="3.51074" text-anchor="middle" dy="0.4em" font-size="0.4">46</text><rect x="1.13053" y="2.61463" width="1.10703" height="1.79222" stroke-width="0.03" style="fill:transparent;stroke:black"></rect><rect x="2.23756" y="2.61463" width="0.800151" height="1.79222" stroke-width="0.03" style="fill:#4860E8;stroke:black"></rect><text x="2.63764" y="3.51074" text-anchor="middle" dy="0.4em" font-size="0.4">48</text><rect x="2.23756" y="2.61463" width="0.800151" height="1.79222" stroke-width="0.03" style="fill:transparent;stroke:black"></rect><rect x="0" y="2.61463" width="3.6484" height="1.79222" stroke-width="0.03" style="fill:transparent;stroke:black"></rect><rect x="2.4435" y="0" width="1.2049" height="1.81282" stroke-width="0.03" style="fill:#4860E8;stroke:black"></rect><text x="3.04595" y="0.906408" text-anchor="middle" dy="0.4em" font-size="0.4">51</text><rect x="2.4435" y="0" width="1.2049" height="1.81282" stroke-width="0.03" style="fill:transparent;stroke:black"></rect><rect x="2.4435" y="1.81282" width="1.2049" height="0.801813" stroke-width="0.03" style="fill:#4860E8;stroke:black"></rect><text x="3.04595" y="2.21372" text-anchor="middle" dy="0.4em" font-size="0.4">53</text><rect x="2.4435" y="1.81282" width="1.2049" height="0.801813" stroke-width="0.03" style="fill:transparent;stroke:black"></rect><rect x="2.4435" y="0" width="1.2049" height="2.61463" stroke-width="0.03" style="fill:transparent;stroke:black"></rect><rect x="1.19187" y="0" width="0.64766" height="2.61463" stroke-width="0.03" style="fill:#4860E8;stroke:black"></rect><text x="1.5157" y="1.30731" text-anchor="middle" dy="0.4em" font-size="0.4">56</text><rect x="1.83953" y="0" width="0.603977" height="2.61463" stroke-width="0.03" style="fill:#4860E8;stroke:black"></rect><text x="2.14151" y="1.30731" text-anchor="middle" dy="0.4em" font-size="0.4">57</text><rect x="0" y="1.30946" width="1.19187" height="1.30517" stroke-width="0.03" style="fill:#4860E8;stroke:black"></rect><text x="0.595933" y="1.96205" text-anchor="middle" dy="0.4em" font-size="0.4">58</text><rect x="0" y="0" width="1.19187" height="1.30946" stroke-width="0.03" style="fill:#4860E8;stroke:black"></rect><text x="0.595933" y="0.654731" text-anchor="middle" dy="0.4em" font-size="0.4">59</text><rect x="0" y="0" width="2.4435" height="2.61463" stroke-width="0.03" style="fill:transparent;stroke:black"></rect><rect x="0" y="0" width="3.6484" height="2.61463" stroke-width="0.03" style="fill:transparent;stroke:black"></rect><rect x="0" y="0" width="3.6484" height="4.40685" stroke-width="0.03" style="fill:transparent;stroke:black"></rect><rect x="2.16501" y="4.40685" width="1.48339" height="1.58678" stroke-width="0.03" style="fill:#4860E8;stroke:black"></rect><text x="2.90671" y="5.20024" text-anchor="middle" dy="0.4em" font-size="0.4">63</text><rect x="2.16501" y="7.41226" width="1.48339" height="1.22046" stroke-width="0.03" style="fill:#4860E8;stroke:black"></rect><text x="2.90671" y="8.02249" text-anchor="middle" dy="0.4em" font-size="0.4">64</text><rect x="2.16501" y="5.99363" width="1.48339" height="1.41864" stroke-width="0.03" style="fill:#4860E8;stroke:black"></rect><text x="2.90671" y="6.70294" text-anchor="middle" dy="0.4em" font-size="0.4">65</text><rect x="2.16501" y="4.40685" width="1.48339" height="4.22588" stroke-width="0.03" style="fill:transparent;stroke:black"></rect><rect x="1.09899" y="7.39539" width="1.06602" height="1.23733" stroke-width="0.03" style="fill:#4860E8;stroke:black"></rect><text x="1.632" y="8.01406" text-anchor="middle" dy="0.4em" font-size="0.4">67</text><rect x="1.09899" y="7.39539" width="1.06602" height="1.23733" stroke-width="0.03" style="fill:transparent;stroke:black"></rect><rect x="0" y="7.39539" width="1.09899" height="1.23733" stroke-width="0.03" style="fill:#4860E8;stroke:black"></rect><text x="0.549495" y="8.01406" text-anchor="middle" dy="0.4em" font-size="0.4">69</text><rect x="0" y="7.39539" width="1.09899" height="1.23733" stroke-width="0.03" style="fill:transparent;stroke:black"></rect><rect x="0" y="7.39539" width="2.16501" height="1.23733" stroke-width="0.03" style="fill:transparent;stroke:black"></rect><rect x="1.18021" y="5.9129" width="0.984803" height="1.48249" stroke-width="0.03" style="fill:#4860E8;stroke:black"></rect><text x="1.67261" y="6.65415" text-anchor="middle" dy="0.4em" font-size="0.4">72</text><rect x="1.18021" y="5.9129" width="0.984803" height="1.48249" stroke-width="0.03" style="fill:transparent;stroke:black"></rect><rect x="0" y="5.9129" width="1.18021" height="1.48249" stroke-width="0.03" style="fill:#4860E8;stroke:black"></rect><text x="0.590105" y="6.65415" text-anchor="middle" dy="0.4em" font-size="0.4">74</text><rect x="0" y="5.9129" width="1.18021" height="1.48249" stroke-width="0.03" style="fill:transparent;stroke:black"></rect><rect x="0" y="5.9129" width="2.16501" height="1.48249" stroke-width="0.03" style="fill:transparent;stroke:black"></rect><rect x="1.43021" y="4.40685" width="0.734804" height="1.50605" stroke-width="0.03" style="fill:#4860E8;stroke:black"></rect><text x="1.79761" y="5.15987" text-anchor="middle" dy="0.4em" font-size="0.4">77</text><rect x="0" y="4.40685" width="1.43021" height="1.50605" stroke-width="0.03" style="fill:#4860E8;stroke:black"></rect><text x="0.715105" y="5.15987" text-anchor="middle" dy="0.4em" font-size="0.4">78</text><rect x="0" y="4.40685" width="2.16501" height="1.50605" stroke-width="0.03" style="fill:transparent;stroke:black"></rect><rect x="0" y="4.40685" width="2.16501" height="1.50605" stroke-width="0.03" style="fill:transparent;stroke:black"></rect><rect x="0" y="4.40685" width="3.6484" height="4.22588" stroke-width="0.03" style="fill:transparent;stroke:black"></rect><rect x="0" y="4.40685" width="3.6484" height="4.22588" stroke-width="0.03" style="fill:transparent;stroke:black"></rect><rect x="0" y="0" width="8.63272" height="8.63272" stroke-width="0.03" style="fill:transparent;stroke:black"></rect></svg>
