<!DOCTYPE svg PUBLIC "-//W3C//DTD SVG 1.1//EN"
"http://www.w3.org/Graphics/SVG/1.1/DTD/svg11.dtd">
<svg xmlns="http://www.w3.org/2000/svg" xmlns:xlink="http://www.w3.org/1999/xlink" width="1200px" height="700px" viewBox="0 0 7.6039510505131922 7.6039510505131922"><title>Tree layout -- Seed: 138269510</title><rect x="4.94729" y="0" width="1.09798" height="1.64932" stroke-width="0.03" style="fill:#4860E8;stroke:black"></rect><text x="5.49628" y="0.824658" text-anchor="middle" font-size="0.4">1</text><rect x="6.04527" y="0" width="0.979306" height="1.64932" stroke-width="0.03" style="fill:#4860E8;stroke:black"></rect><text x="6.53492" y="0.824658" text-anchor="middle" font-size="0.4">2</text><rect x="4.94729" y="1.64932" width="2.65666" height="0.76593" stroke-width="0.03" style="fill:#4860E8;stroke:black"></rect><text x="6.27562" y="2.03228" text-anchor="middle" font-size="0.4">3</text><rect x="7.02458" y="0" width="0.579376" height="1.64932" stroke-width="0.03" style="fill:#4860E8;stroke:black"></rect><text x="7.31426" y="0.824658" text-anchor="middle" font-size="0.4">4</text><rect x="4.94729" y="0" width="2.65666" height="2.41525" stroke-width="0.03" style="fill:transparent;stroke:black"></rect><rect x="4.94729" y="0" width="2.65666" height="2.41525" stroke-width="0.03" style="fill:transparent;stroke:black"></rect><rect x="6.28314" y="2.41525" width="1.32081" height="1.13154" stroke-width="0.03" style="fill:#4860E8;stroke:black"></rect><text x="6.94354" y="2.98102" text-anchor="middle" font-size="0.4">7</text><rect x="4.94729" y="2.41525" width="1.33585" height="1.13154" stroke-width="0.03" style="fill:#4860E8;stroke:black"></rect><text x="5.61521" y="2.98102" text-anchor="middle" font-size="0.4">8</text><rect x="4.94729" y="3.54679" width="2.65666" height="0.780489" stroke-width="0.03" style="fill:#4860E8;stroke:black"></rect><text x="6.27562" y="3.93704" text-anchor="middle" font-size="0.4">9</text><rect x="4.94729" y="2.41525" width="2.65666" height="1.91203" stroke-width="0.03" style="fill:transparent;stroke:black"></rect><rect x="4.94729" y="0" width="2.65666" height="4.32728" stroke-width="0.03" style="fill:transparent;stroke:black"></rect><rect x="6.40154" y="6.32632" width="1.20241" height="1.27764" stroke-width="0.03" style="fill:#4860E8;stroke:black"></rect><text x="7.00275" y="6.96513" text-anchor="middle" font-size="0.4">12</text><rect x="6.40154" y="6.32632" width="1.20241" height="1.27764" stroke-width="0.03" style="fill:transparent;stroke:black"></rect><rect x="4.94729" y="6.32632" width="1.45425" height="1.27764" stroke-width="0.03" style="fill:#4860E8;stroke:black"></rect><text x="5.67442" y="6.96513" text-anchor="middle" font-size="0.4">14</text><rect x="4.94729" y="6.32632" width="1.45425" height="1.27764" stroke-width="0.03" style="fill:transparent;stroke:black"></rect><rect x="4.94729" y="6.32632" width="2.65666" height="1.27764" stroke-width="0.03" style="fill:transparent;stroke:black"></rect><rect x="4.94729" y="6.32632" width="2.65666" height="1.27764" stroke-width="0.03" style="fill:transparent;stroke:black"></rect><rect x="6.28668" y="4.32728" width="1.31727" height="0.921592" stroke-width="0.03" style="fill:#4860E8;stroke:black"></rect><text x="6.94532" y="4.78808" text-anchor="middle" font-size="0.4">18</text><rect x="4.94729" y="4.32728" width="1.33939" height="0.921592" stroke-width="0.03" style="fill:#4860E8;stroke:black"></rect><text x="5.61699" y="4.78808" text-anchor="middle" font-size="0.4">19</text><rect x="4.94729" y="5.82012" width="2.65666" height="0.506197" stroke-width="0.03" style="fill:#4860E8;stroke:black"></rect><text x="6.27562" y="6.07322" text-anchor="middle" font-size="0.4">20</text><rect x="4.94729" y="5.24887" width="2.65666" height="0.571248" stroke-width="0.03" style="fill:#4860E8;stroke:black"></rect><text x="6.27562" y="5.5345" text-anchor="middle" font-size="0.4">21</text><rect x="4.94729" y="4.32728" width="2.65666" height="1.99904" stroke-width="0.03" style="fill:transparent;stroke:black"></rect><rect x="4.94729" y="4.32728" width="2.65666" height="1.99904" stroke-width="0.03" style="fill:transparent;stroke:black"></rect><rect x="4.94729" y="4.32728" width="2.65666" height="3.27667" stroke-width="0.03" style="fill:transparent;stroke:black"></rect><rect x="4.94729" y="4.32728" width="2.65666" height="3.27667" stroke-width="0.03" style="fill:transparent;stroke:black"></rect><rect x="4.94729" y="0" width="2.65666" height="7.60395" stroke-width="0.03" style="fill:transparent;stroke:black"></rect><rect x="4.94729" y="0" width="2.65666" height="7.60395" stroke-width="0.03" style="fill:transparent;stroke:black"></rect><rect x="4.94729" y="0" width="2.65666" height="7.60395" stroke-width="0.03" style="fill:transparent;stroke:black"></rect><rect x="4.05867" y="0" width="0.888624" height="2.52166" stroke-width="0.03" style="fill:#4860E8;stroke:black"></rect><text x="4.50298" y="1.26083" text-anchor="middle" font-size="0.4">29</text><rect x="4.05867" y="0" width="0.888624" height="2.52166" stroke-width="0.03" style="fill:transparent;stroke:black"></rect><rect x="2.55316" y="0" width="1.50551" height="1.06165" stroke-width="0.03" style="fill:#4860E8;stroke:black"></rect><text x="3.30591" y="0.530827" text-anchor="middle" font-size="0.4">31</text><rect x="2.55316" y="0" width="1.50551" height="1.06165" stroke-width="0.03" style="fill:transparent;stroke:black"></rect><rect x="2.55316" y="1.84746" width="1.50551" height="0.674205" stroke-width="0.03" style="fill:#4860E8;stroke:black"></rect><text x="3.30591" y="2.18456" text-anchor="middle" font-size="0.4">33</text><rect x="2.55316" y="1.84746" width="1.50551" height="0.674205" stroke-width="0.03" style="fill:transparent;stroke:black"></rect><rect x="2.55316" y="1.06165" width="1.50551" height="0.785802" stroke-width="0.03" style="fill:#4860E8;stroke:black"></rect><text x="3.30591" y="1.45455" text-anchor="middle" font-size="0.4">35</text><rect x="2.55316" y="1.06165" width="1.50551" height="0.785802" stroke-width="0.03" style="fill:transparent;stroke:black"></rect><rect x="2.55316" y="0" width="2.39413" height="2.52166" stroke-width="0.03" style="fill:transparent;stroke:black"></rect><rect x="0" y="1.64641" width="2.55316" height="0.875251" stroke-width="0.03" style="fill:#4860E8;stroke:black"></rect><text x="1.27658" y="2.08404" text-anchor="middle" font-size="0.4">38</text><rect x="1.06018" y="0" width="0.894469" height="1.64641" stroke-width="0.03" style="fill:#4860E8;stroke:black"></rect><text x="1.50742" y="0.823205" text-anchor="middle" font-size="0.4">39</text><rect x="0" y="0" width="1.06018" height="1.64641" stroke-width="0.03" style="fill:#4860E8;stroke:black"></rect><text x="0.530092" y="0.823205" text-anchor="middle" font-size="0.4">40</text><rect x="1.95465" y="0" width="0.598506" height="1.64641" stroke-width="0.03" style="fill:#4860E8;stroke:black"></rect><text x="2.25391" y="0.823205" text-anchor="middle" font-size="0.4">41</text><rect x="0" y="0" width="2.55316" height="2.52166" stroke-width="0.03" style="fill:transparent;stroke:black"></rect><rect x="0" y="0" width="2.55316" height="2.52166" stroke-width="0.03" style="fill:transparent;stroke:black"></rect><rect x="0" y="0" width="2.55316" height="2.52166" stroke-width="0.03" style="fill:transparent;stroke:black"></rect><rect x="0" y="0" width="2.55316" height="2.52166" stroke-width="0.03" style="fill:transparent;stroke:black"></rect><rect x="0" y="2.52166" width="1.42912" height="1.51682" stroke-width="0.03" style="fill:#4860E8;stroke:black"></rect><text x="0.71456" y="3.28007" text-anchor="middle" font-size="0.4">46</text><rect x="0" y="2.52166" width="1.42912" height="1.51682" stroke-width="0.03" style="fill:transparent;stroke:black"></rect><rect x="4.1415" y="2.52166" width="0.805788" height="1.51682" stroke-width="0.03" style="fill:#4860E8;stroke:black"></rect><text x="4.5444" y="3.28007" text-anchor="middle" font-size="0.4">48</text><rect x="4.1415" y="2.52166" width="0.805788" height="1.51682" stroke-width="0.03" style="fill:transparent;stroke:black"></rect><rect x="1.42912" y="2.52166" width="1.36255" height="1.51682" stroke-width="0.03" style="fill:#4860E8;stroke:black"></rect><text x="2.11039" y="3.28007" text-anchor="middle" font-size="0.4">50</text><rect x="1.42912" y="2.52166" width="1.36255" height="1.51682" stroke-width="0.03" style="fill:transparent;stroke:black"></rect><rect x="2.79167" y="2.52166" width="1.34983" height="1.51682" stroke-width="0.03" style="fill:#4860E8;stroke:black"></rect><text x="3.46658" y="3.28007" text-anchor="middle" font-size="0.4">52</text><rect x="2.79167" y="2.52166" width="1.34983" height="1.51682" stroke-width="0.03" style="fill:transparent;stroke:black"></rect><rect x="0" y="2.52166" width="4.94729" height="1.51682" stroke-width="0.03" style="fill:transparent;stroke:black"></rect><rect x="0" y="0" width="4.94729" height="4.03848" stroke-width="0.03" style="fill:transparent;stroke:black"></rect><rect x="1.3627" y="4.03848" width="0.831149" height="2.07321" stroke-width="0.03" style="fill:#4860E8;stroke:black"></rect><text x="1.77828" y="5.07508" text-anchor="middle" font-size="0.4">56</text><rect x="1.3627" y="4.03848" width="0.831149" height="2.07321" stroke-width="0.03" style="fill:transparent;stroke:black"></rect><rect x="1.3627" y="4.03848" width="0.831149" height="2.07321" stroke-width="0.03" style="fill:transparent;stroke:black"></rect><rect x="0" y="5.50849" width="1.3627" height="0.603201" stroke-width="0.03" style="fill:#4860E8;stroke:black"></rect><text x="0.681352" y="5.81009" text-anchor="middle" font-size="0.4">59</text><rect x="0" y="4.03848" width="1.3627" height="1.47001" stroke-width="0.03" style="fill:#4860E8;stroke:black"></rect><text x="0.681352" y="4.77348" text-anchor="middle" font-size="0.4">60</text><rect x="0" y="4.03848" width="1.3627" height="2.07321" stroke-width="0.03" style="fill:transparent;stroke:black"></rect><rect x="2.19385" y="4.03848" width="0.533789" height="2.07321" stroke-width="0.03" style="fill:#4860E8;stroke:black"></rect><text x="2.46075" y="5.07508" text-anchor="middle" font-size="0.4">62</text><rect x="2.19385" y="4.03848" width="0.533789" height="2.07321" stroke-width="0.03" style="fill:transparent;stroke:black"></rect><rect x="2.19385" y="4.03848" width="0.533789" height="2.07321" stroke-width="0.03" style="fill:transparent;stroke:black"></rect><rect x="0" y="4.03848" width="2.72764" height="2.07321" stroke-width="0.03" style="fill:transparent;stroke:black"></rect><rect x="2.72764" y="4.03848" width="1.13752" height="1.10593" stroke-width="0.03" style="fill:#4860E8;stroke:black"></rect><text x="3.2964" y="4.59144" text-anchor="middle" font-size="0.4">66</text><rect x="2.72764" y="4.03848" width="1.13752" height="1.10593" stroke-width="0.03" style="fill:transparent;stroke:black"></rect><rect x="2.72764" y="4.03848" width="1.13752" height="1.10593" stroke-width="0.03" style="fill:transparent;stroke:black"></rect><rect x="3.86516" y="4.03848" width="1.08213" height="1.10593" stroke-width="0.03" style="fill:#4860E8;stroke:black"></rect><text x="4.40623" y="4.59144" text-anchor="middle" font-size="0.4">69</text><rect x="3.86516" y="4.03848" width="1.08213" height="1.10593" stroke-width="0.03" style="fill:transparent;stroke:black"></rect><rect x="3.86516" y="4.03848" width="1.08213" height="1.10593" stroke-width="0.03" style="fill:transparent;stroke:black"></rect><rect x="2.72764" y="5.1444" width="2.21965" height="0.967286" stroke-width="0.03" style="fill:#4860E8;stroke:black"></rect><text x="3.83747" y="5.62805" text-anchor="middle" font-size="0.4">72</text><rect x="2.72764" y="5.1444" width="2.21965" height="0.967286" stroke-width="0.03" style="fill:transparent;stroke:black"></rect><rect x="2.72764" y="5.1444" width="2.21965" height="0.967286" stroke-width="0.03" style="fill:transparent;stroke:black"></rect><rect x="2.72764" y="4.03848" width="2.21965" height="2.07321" stroke-width="0.03" style="fill:transparent;stroke:black"></rect><rect x="1.87722" y="6.11169" width="1.19533" height="1.49226" stroke-width="0.03" style="fill:#4860E8;stroke:black"></rect><text x="2.47489" y="6.85782" text-anchor="middle" font-size="0.4">76</text><rect x="3.07255" y="6.11169" width="0.599822" height="1.49226" stroke-width="0.03" style="fill:#4860E8;stroke:black"></rect><text x="3.37246" y="6.85782" text-anchor="middle" font-size="0.4">77</text><rect x="1.87722" y="6.11169" width="1.79515" height="1.49226" stroke-width="0.03" style="fill:transparent;stroke:black"></rect><rect x="3.67237" y="6.11169" width="1.27492" height="1.49226" stroke-width="0.03" style="fill:#4860E8;stroke:black"></rect><text x="4.30983" y="6.85782" text-anchor="middle" font-size="0.4">79</text><rect x="3.67237" y="6.11169" width="1.27492" height="1.49226" stroke-width="0.03" style="fill:transparent;stroke:black"></rect><rect x="3.67237" y="6.11169" width="1.27492" height="1.49226" stroke-width="0.03" style="fill:transparent;stroke:black"></rect><rect x="0" y="6.11169" width="1.13945" height="1.49226" stroke-width="0.03" style="fill:#4860E8;stroke:black"></rect><text x="0.569723" y="6.85782" text-anchor="middle" font-size="0.4">82</text><rect x="1.13945" y="6.11169" width="0.737778" height="1.49226" stroke-width="0.03" style="fill:#4860E8;stroke:black"></rect><text x="1.50833" y="6.85782" text-anchor="middle" font-size="0.4">83</text><rect x="0" y="6.11169" width="1.87722" height="1.49226" stroke-width="0.03" style="fill:transparent;stroke:black"></rect><rect x="0" y="6.11169" width="4.94729" height="1.49226" stroke-width="0.03" style="fill:transparent;stroke:black"></rect><rect x="0" y="4.03848" width="4.94729" height="3.56547" stroke-width="0.03" style="fill:transparent;stroke:black"></rect><rect x="0" y="0" width="7.60395" height="7.60395" stroke-width="0.03" style="fill:transparent;stroke:black"></rect><rect x="0" y="0" width="7.60395" height="7.60395" stroke-width="0.03" style="fill:transparent;stroke:black"></rect></svg>
