<!DOCTYPE svg PUBLIC "-//W3C//DTD SVG 1.1//EN" "http://www.w3.org/Graphics/SVG/1.1/DTD/svg11.dtd">
<svg xmlns="http://www.w3.org/2000/svg" xmlns:xlink="http://www.w3.org/1999/xlink" width="1200px" height="700px" viewBox="-15.5383 -1 33.1748 11"><title>Tree layout -- Seed: 264856983</title><path d="M0.000000,0.000000 L-9.699696,1.000000" stroke="black" stroke-width="0.06" fill="none" /><path d="M0.000000,0.000000 L9.699696,1.000000" stroke="black" stroke-width="0.06" fill="none" /><path d="M-9.699696,1.000000 L-12.405517,2.000000" stroke="black" stroke-width="0.06" fill="none" /><path d="M-9.699696,1.000000 L-6.993874,2.000000" stroke="black" stroke-width="0.06" fill="none" /><path d="M-12.405517,2.000000 L-13.598523,3.000000" stroke="black" stroke-width="0.06" fill="none" /><path d="M-12.405517,2.000000 L-11.212512,3.000000" stroke="black" stroke-width="0.06" fill="none" /><path d="M-13.598523,3.000000 L-14.158335,4.000000" stroke="black" stroke-width="0.06" fill="none" /><path d="M-13.598523,3.000000 L-13.038711,4.000000" stroke="black" stroke-width="0.06" fill="none" /><path d="M-14.158335,4.000000 L-14.538272,5.000000" stroke="black" stroke-width="0.06" fill="none" /><path d="M-14.158335,4.000000 L-13.778397,5.000000" stroke="black" stroke-width="0.06" fill="none" /><path d="M-11.212512,3.000000 L-11.804838,4.000000" stroke="black" stroke-width="0.06" fill="none" /><path d="M-11.212512,3.000000 L-10.620185,4.000000" stroke="black" stroke-width="0.06" fill="none" /><path d="M-10.620185,4.000000 L-11.163417,5.000000" stroke="black" stroke-width="0.06" fill="none" /><path d="M-10.620185,4.000000 L-10.076953,5.000000" stroke="black" stroke-width="0.06" fill="none" /><path d="M-11.163417,5.000000 L-11.671192,6.000000" stroke="black" stroke-width="0.06" fill="none" /><path d="M-11.163417,5.000000 L-10.655641,6.000000" stroke="black" stroke-width="0.06" fill="none" /><path d="M-10.655641,6.000000 L-11.241889,7.000000" stroke="black" stroke-width="0.06" fill="none" /><path d="M-10.655641,6.000000 L-10.069393,7.000000" stroke="black" stroke-width="0.06" fill="none" /><path d="M-11.241889,7.000000 L-11.946639,8.000000" stroke="black" stroke-width="0.06" fill="none" /><path d="M-11.241889,7.000000 L-10.537140,8.000000" stroke="black" stroke-width="0.06" fill="none" /><path d="M-6.993874,2.000000 L-8.190625,3.000000" stroke="black" stroke-width="0.06" fill="none" /><path d="M-6.993874,2.000000 L-5.797124,3.000000" stroke="black" stroke-width="0.06" fill="none" /><path d="M-8.190625,3.000000 L-8.763924,4.000000" stroke="black" stroke-width="0.06" fill="none" /><path d="M-8.190625,3.000000 L-7.617326,4.000000" stroke="black" stroke-width="0.06" fill="none" /><path d="M-8.763924,4.000000 L-9.265877,5.000000" stroke="black" stroke-width="0.06" fill="none" /><path d="M-8.763924,4.000000 L-8.261971,5.000000" stroke="black" stroke-width="0.06" fill="none" /><path d="M-5.797124,3.000000 L-6.396016,4.000000" stroke="black" stroke-width="0.06" fill="none" /><path d="M-5.797124,3.000000 L-5.198232,4.000000" stroke="black" stroke-width="0.06" fill="none" /><path d="M-6.396016,4.000000 L-6.972425,5.000000" stroke="black" stroke-width="0.06" fill="none" /><path d="M-6.396016,4.000000 L-5.819607,5.000000" stroke="black" stroke-width="0.06" fill="none" /><path d="M9.699696,1.000000 L5.279434,2.000000" stroke="black" stroke-width="0.06" fill="none" /><path d="M9.699696,1.000000 L14.119958,2.000000" stroke="black" stroke-width="0.06" fill="none" /><path d="M5.279434,2.000000 L1.178500,3.000000" stroke="black" stroke-width="0.06" fill="none" /><path d="M5.279434,2.000000 L9.380368,3.000000" stroke="black" stroke-width="0.06" fill="none" /><path d="M1.178500,3.000000 L-2.460987,4.000000" stroke="black" stroke-width="0.06" fill="none" /><path d="M1.178500,3.000000 L4.817987,4.000000" stroke="black" stroke-width="0.06" fill="none" /><path d="M-2.460987,4.000000 L-4.627791,5.000000" stroke="black" stroke-width="0.06" fill="none" /><path d="M-2.460987,4.000000 L-0.294182,5.000000" stroke="black" stroke-width="0.06" fill="none" /><path d="M-4.627791,5.000000 L-5.746422,6.000000" stroke="black" stroke-width="0.06" fill="none" /><path d="M-4.627791,5.000000 L-3.509160,6.000000" stroke="black" stroke-width="0.06" fill="none" /><path d="M-5.746422,6.000000 L-6.355164,7.000000" stroke="black" stroke-width="0.06" fill="none" /><path d="M-5.746422,6.000000 L-5.137680,7.000000" stroke="black" stroke-width="0.06" fill="none" /><path d="M-6.355164,7.000000 L-6.961501,8.000000" stroke="black" stroke-width="0.06" fill="none" /><path d="M-6.355164,7.000000 L-5.748828,8.000000" stroke="black" stroke-width="0.06" fill="none" /><path d="M-3.509160,6.000000 L-3.902181,7.000000" stroke="black" stroke-width="0.06" fill="none" /><path d="M-3.509160,6.000000 L-3.116139,7.000000" stroke="black" stroke-width="0.06" fill="none" /><path d="M-0.294182,5.000000 L-1.662879,6.000000" stroke="black" stroke-width="0.06" fill="none" /><path d="M-0.294182,5.000000 L1.074515,6.000000" stroke="black" stroke-width="0.06" fill="none" /><path d="M-1.662879,6.000000 L-2.135564,7.000000" stroke="black" stroke-width="0.06" fill="none" /><path d="M-1.662879,6.000000 L-1.190194,7.000000" stroke="black" stroke-width="0.06" fill="none" /><path d="M-2.135564,7.000000 L-2.869133,8.000000" stroke="black" stroke-width="0.06" fill="none" /><path d="M-2.135564,7.000000 L-1.401996,8.000000" stroke="black" stroke-width="0.06" fill="none" /><path d="M-2.869133,8.000000 L-3.451636,9.000000" stroke="black" stroke-width="0.06" fill="none" /><path d="M-2.869133,8.000000 L-2.286630,9.000000" stroke="black" stroke-width="0.06" fill="none" /><path d="M1.074515,6.000000 L0.478089,7.000000" stroke="black" stroke-width="0.06" fill="none" /><path d="M1.074515,6.000000 L1.670940,7.000000" stroke="black" stroke-width="0.06" fill="none" /><path d="M0.478089,7.000000 L-0.048195,8.000000" stroke="black" stroke-width="0.06" fill="none" /><path d="M0.478089,7.000000 L1.004373,8.000000" stroke="black" stroke-width="0.06" fill="none" /><path d="M4.817987,4.000000 L2.844388,5.000000" stroke="black" stroke-width="0.06" fill="none" /><path d="M4.817987,4.000000 L6.791586,5.000000" stroke="black" stroke-width="0.06" fill="none" /><path d="M2.844388,5.000000 L2.389531,6.000000" stroke="black" stroke-width="0.06" fill="none" /><path d="M2.844388,5.000000 L3.299245,6.000000" stroke="black" stroke-width="0.06" fill="none" /><path d="M6.791586,5.000000 L4.452048,6.000000" stroke="black" stroke-width="0.06" fill="none" /><path d="M6.791586,5.000000 L9.131124,6.000000" stroke="black" stroke-width="0.06" fill="none" /><path d="M4.452048,6.000000 L2.998450,7.000000" stroke="black" stroke-width="0.06" fill="none" /><path d="M4.452048,6.000000 L5.905646,7.000000" stroke="black" stroke-width="0.06" fill="none" /><path d="M2.998450,7.000000 L2.261207,8.000000" stroke="black" stroke-width="0.06" fill="none" /><path d="M2.998450,7.000000 L3.735693,8.000000" stroke="black" stroke-width="0.06" fill="none" /><path d="M5.905646,7.000000 L5.212022,8.000000" stroke="black" stroke-width="0.06" fill="none" /><path d="M5.905646,7.000000 L6.599269,8.000000" stroke="black" stroke-width="0.06" fill="none" /><path d="M5.212022,8.000000 L4.486640,9.000000" stroke="black" stroke-width="0.06" fill="none" /><path d="M5.212022,8.000000 L5.937404,9.000000" stroke="black" stroke-width="0.06" fill="none" /><path d="M9.131124,6.000000 L8.292938,7.000000" stroke="black" stroke-width="0.06" fill="none" /><path d="M9.131124,6.000000 L9.969310,7.000000" stroke="black" stroke-width="0.06" fill="none" /><path d="M8.292938,7.000000 L7.692003,8.000000" stroke="black" stroke-width="0.06" fill="none" /><path d="M8.292938,7.000000 L8.893873,8.000000" stroke="black" stroke-width="0.06" fill="none" /><path d="M9.380368,3.000000 L8.848853,4.000000" stroke="black" stroke-width="0.06" fill="none" /><path d="M9.380368,3.000000 L9.911883,4.000000" stroke="black" stroke-width="0.06" fill="none" /><path d="M8.848853,4.000000 L8.154776,5.000000" stroke="black" stroke-width="0.06" fill="none" /><path d="M8.848853,4.000000 L9.542931,5.000000" stroke="black" stroke-width="0.06" fill="none" /><path d="M14.119958,2.000000 L12.657035,3.000000" stroke="black" stroke-width="0.06" fill="none" /><path d="M14.119958,2.000000 L15.582881,3.000000" stroke="black" stroke-width="0.06" fill="none" /><path d="M12.657035,3.000000 L11.518101,4.000000" stroke="black" stroke-width="0.06" fill="none" /><path d="M12.657035,3.000000 L13.795968,4.000000" stroke="black" stroke-width="0.06" fill="none" /><path d="M11.518101,4.000000 L10.921032,5.000000" stroke="black" stroke-width="0.06" fill="none" /><path d="M11.518101,4.000000 L12.115170,5.000000" stroke="black" stroke-width="0.06" fill="none" /><path d="M12.115170,5.000000 L11.439113,6.000000" stroke="black" stroke-width="0.06" fill="none" /><path d="M12.115170,5.000000 L12.791226,6.000000" stroke="black" stroke-width="0.06" fill="none" /><path d="M13.795968,4.000000 L13.218647,5.000000" stroke="black" stroke-width="0.06" fill="none" /><path d="M13.795968,4.000000 L14.373289,5.000000" stroke="black" stroke-width="0.06" fill="none" /><path d="M14.373289,5.000000 L13.955084,6.000000" stroke="black" stroke-width="0.06" fill="none" /><path d="M14.373289,5.000000 L14.791495,6.000000" stroke="black" stroke-width="0.06" fill="none" /><path d="M14.791495,6.000000 L14.354073,7.000000" stroke="black" stroke-width="0.06" fill="none" /><path d="M14.791495,6.000000 L15.228918,7.000000" stroke="black" stroke-width="0.06" fill="none" /><path d="M15.582881,3.000000 L15.085310,4.000000" stroke="black" stroke-width="0.06" fill="none" /><path d="M15.582881,3.000000 L16.080451,4.000000" stroke="black" stroke-width="0.06" fill="none" /><path d="M16.080451,4.000000 L15.524422,5.000000" stroke="black" stroke-width="0.06" fill="none" /><path d="M16.080451,4.000000 L16.636480,5.000000" stroke="black" stroke-width="0.06" fill="none" /><rect x="-14.7905" y="4.6" width="0.50452" height="0.8" stroke-width="0.03" style="fill:#4860E8;stroke:black" /><text x="-14.5383" y="5" text-anchor="middle" font-size="0.4">94</text><rect x="-14.086" y="4.6" width="0.61523" height="0.8" stroke-width="0.03" style="fill:#4860E8;stroke:black" /><text x="-13.7784" y="5" text-anchor="middle" font-size="0.4">93</text><rect x="-14.7101" y="3.6" width="1.1035" height="0.8" stroke-width="0.03" style="fill:#4860E8;stroke:black" /><text x="-14.1583" y="4" text-anchor="middle" font-size="0.4">95</text><rect x="-13.4066" y="3.6" width="0.735749" height="0.8" stroke-width="0.03" style="fill:#4860E8;stroke:black" /><text x="-13.0387" y="4" text-anchor="middle" font-size="0.4">92</text><rect x="-13.8569" y="2.6" width="0.516754" height="0.8" stroke-width="0.03" style="fill:#4860E8;stroke:black" /><text x="-13.5985" y="3" text-anchor="middle" font-size="0.4">96</text><rect x="-12.4708" y="3.6" width="1.332" height="0.8" stroke-width="0.03" style="fill:#4860E8;stroke:black" /><text x="-11.8048" y="4" text-anchor="middle" font-size="0.4">90</text><rect x="-12.0763" y="5.6" width="0.810158" height="0.8" stroke-width="0.03" style="fill:#4860E8;stroke:black" /><text x="-11.6712" y="6" text-anchor="middle" font-size="0.4">87</text><rect x="-12.6456" y="7.6" width="1.39794" height="0.8" stroke-width="0.03" style="fill:#4860E8;stroke:black" /><text x="-11.9466" y="8" text-anchor="middle" font-size="0.4">84</text><rect x="-11.0477" y="7.6" width="1.02106" height="0.8" stroke-width="0.03" style="fill:#4860E8;stroke:black" /><text x="-10.5371" y="8" text-anchor="middle" font-size="0.4">83</text><rect x="-11.93" y="6.6" width="1.3763" height="0.8" stroke-width="0.03" style="fill:#4860E8;stroke:black" /><text x="-11.2419" y="7" text-anchor="middle" font-size="0.4">85</text><rect x="-10.3537" y="6.6" width="0.568695" height="0.8" stroke-width="0.03" style="fill:#4860E8;stroke:black" /><text x="-10.0694" y="7" text-anchor="middle" font-size="0.4">82</text><rect x="-11.0661" y="5.6" width="0.820944" height="0.8" stroke-width="0.03" style="fill:#4860E8;stroke:black" /><text x="-10.6556" y="6" text-anchor="middle" font-size="0.4">86</text><rect x="-11.7152" y="4.6" width="1.10365" height="0.8" stroke-width="0.03" style="fill:#4860E8;stroke:black" /><text x="-11.1634" y="5" text-anchor="middle" font-size="0.4">88</text><rect x="-10.4116" y="4.6" width="0.669274" height="0.8" stroke-width="0.03" style="fill:#4860E8;stroke:black" /><text x="-10.077" y="5" text-anchor="middle" font-size="0.4">81</text><rect x="-10.9388" y="3.6" width="0.637311" height="0.8" stroke-width="0.03" style="fill:#4860E8;stroke:black" /><text x="-10.6202" y="4" text-anchor="middle" font-size="0.4">89</text><rect x="-11.849" y="2.6" width="1.27298" height="0.8" stroke-width="0.03" style="fill:#4860E8;stroke:black" /><text x="-11.2125" y="3" text-anchor="middle" font-size="0.4">91</text><rect x="-13.0386" y="1.6" width="1.26618" height="0.8" stroke-width="0.03" style="fill:#4860E8;stroke:black" /><text x="-12.4055" y="2" text-anchor="middle" font-size="0.4">97</text><rect x="-9.54232" y="4.6" width="0.552878" height="0.8" stroke-width="0.03" style="fill:#4860E8;stroke:black" /><text x="-9.26588" y="5" text-anchor="middle" font-size="0.4">77</text><rect x="-8.78944" y="4.6" width="1.05493" height="0.8" stroke-width="0.03" style="fill:#4860E8;stroke:black" /><text x="-8.26197" y="5" text-anchor="middle" font-size="0.4">76</text><rect x="-9.30296" y="3.6" width="1.07807" height="0.8" stroke-width="0.03" style="fill:#4860E8;stroke:black" /><text x="-8.76392" y="4" text-anchor="middle" font-size="0.4">78</text><rect x="-8.02489" y="3.6" width="0.815125" height="0.8" stroke-width="0.03" style="fill:#4860E8;stroke:black" /><text x="-7.61733" y="4" text-anchor="middle" font-size="0.4">75</text><rect x="-8.71388" y="2.6" width="1.0465" height="0.8" stroke-width="0.03" style="fill:#4860E8;stroke:black" /><text x="-8.19063" y="3" text-anchor="middle" font-size="0.4">79</text><rect x="-7.52385" y="4.6" width="1.10284" height="0.8" stroke-width="0.03" style="fill:#4860E8;stroke:black" /><text x="-6.97242" y="5" text-anchor="middle" font-size="0.4">72</text><rect x="-6.221" y="4.6" width="0.802793" height="0.8" stroke-width="0.03" style="fill:#4860E8;stroke:black" /><text x="-5.81961" y="5" text-anchor="middle" font-size="0.4">71</text><rect x="-7.00976" y="3.6" width="1.2275" height="0.8" stroke-width="0.03" style="fill:#4860E8;stroke:black" /><text x="-6.39602" y="4" text-anchor="middle" font-size="0.4">73</text><rect x="-5.58227" y="3.6" width="0.768071" height="0.8" stroke-width="0.03" style="fill:#4860E8;stroke:black" /><text x="-5.19823" y="4" text-anchor="middle" font-size="0.4">70</text><rect x="-6.1588" y="2.6" width="0.723352" height="0.8" stroke-width="0.03" style="fill:#4860E8;stroke:black" /><text x="-5.79712" y="3" text-anchor="middle" font-size="0.4">74</text><rect x="-7.38778" y="1.6" width="0.787803" height="0.8" stroke-width="0.03" style="fill:#4860E8;stroke:black" /><text x="-6.99387" y="2" text-anchor="middle" font-size="0.4">80</text><rect x="-10.0098" y="0.6" width="0.620162" height="0.8" stroke-width="0.03" style="fill:#4860E8;stroke:black" /><text x="-9.6997" y="1" text-anchor="middle" font-size="0.4">98</text><rect x="-7.3126" y="7.6" width="0.702193" height="0.8" stroke-width="0.03" style="fill:#4860E8;stroke:black" /><text x="-6.9615" y="8" text-anchor="middle" font-size="0.4">62</text><rect x="-6.4104" y="7.6" width="1.32315" height="0.8" stroke-width="0.03" style="fill:#4860E8;stroke:black" /><text x="-5.74883" y="8" text-anchor="middle" font-size="0.4">61</text><rect x="-6.63249" y="6.6" width="0.554651" height="0.8" stroke-width="0.03" style="fill:#4860E8;stroke:black" /><text x="-6.35516" y="7" text-anchor="middle" font-size="0.4">63</text><rect x="-5.87784" y="6.6" width="1.48032" height="0.8" stroke-width="0.03" style="fill:#4860E8;stroke:black" /><text x="-5.13768" y="7" text-anchor="middle" font-size="0.4">60</text><rect x="-6.37388" y="5.6" width="1.25491" height="0.8" stroke-width="0.03" style="fill:#4860E8;stroke:black" /><text x="-5.74642" y="6" text-anchor="middle" font-size="0.4">64</text><rect x="-4.19752" y="6.6" width="0.59068" height="0.8" stroke-width="0.03" style="fill:#4860E8;stroke:black" /><text x="-3.90218" y="7" text-anchor="middle" font-size="0.4">58</text><rect x="-3.40684" y="6.6" width="0.581403" height="0.8" stroke-width="0.03" style="fill:#4860E8;stroke:black" /><text x="-3.11614" y="7" text-anchor="middle" font-size="0.4">57</text><rect x="-4.17129" y="5.6" width="1.32425" height="0.8" stroke-width="0.03" style="fill:#4860E8;stroke:black" /><text x="-3.50916" y="6" text-anchor="middle" font-size="0.4">59</text><rect x="-5.21821" y="4.6" width="1.18084" height="0.8" stroke-width="0.03" style="fill:#4860E8;stroke:black" /><text x="-4.62779" y="5" text-anchor="middle" font-size="0.4">65</text><rect x="-3.7581" y="8.6" width="0.612933" height="0.8" stroke-width="0.03" style="fill:#4860E8;stroke:black" /><text x="-3.45164" y="9" text-anchor="middle" font-size="0.4">52</text><rect x="-2.94517" y="8.6" width="1.31708" height="0.8" stroke-width="0.03" style="fill:#4860E8;stroke:black" /><text x="-2.28663" y="9" text-anchor="middle" font-size="0.4">51</text><rect x="-3.51268" y="7.6" width="1.2871" height="0.8" stroke-width="0.03" style="fill:#4860E8;stroke:black" /><text x="-2.86913" y="8" text-anchor="middle" font-size="0.4">53</text><rect x="-2.02558" y="7.6" width="1.24718" height="0.8" stroke-width="0.03" style="fill:#4860E8;stroke:black" /><text x="-1.402" y="8" text-anchor="middle" font-size="0.4">50</text><rect x="-2.62544" y="6.6" width="0.979747" height="0.8" stroke-width="0.03" style="fill:#4860E8;stroke:black" /><text x="-2.13556" y="7" text-anchor="middle" font-size="0.4">54</text><rect x="-1.44569" y="6.6" width="0.510993" height="0.8" stroke-width="0.03" style="fill:#4860E8;stroke:black" /><text x="-1.19019" y="7" text-anchor="middle" font-size="0.4">49</text><rect x="-2.05426" y="5.6" width="0.782771" height="0.8" stroke-width="0.03" style="fill:#4860E8;stroke:black" /><text x="-1.66288" y="6" text-anchor="middle" font-size="0.4">55</text><rect x="-0.578407" y="7.6" width="1.06042" height="0.8" stroke-width="0.03" style="fill:#4860E8;stroke:black" /><text x="-0.0481952" y="8" text-anchor="middle" font-size="0.4">46</text><rect x="0.682016" y="7.6" width="0.644713" height="0.8" stroke-width="0.03" style="fill:#4860E8;stroke:black" /><text x="1.00437" y="8" text-anchor="middle" font-size="0.4">45</text><rect x="-0.0533091" y="6.6" width="1.0628" height="0.8" stroke-width="0.03" style="fill:#4860E8;stroke:black" /><text x="0.478089" y="7" text-anchor="middle" font-size="0.4">47</text><rect x="1.20949" y="6.6" width="0.922907" height="0.8" stroke-width="0.03" style="fill:#4860E8;stroke:black" /><text x="1.67094" y="7" text-anchor="middle" font-size="0.4">44</text><rect x="0.795739" y="5.6" width="0.557551" height="0.8" stroke-width="0.03" style="fill:#4860E8;stroke:black" /><text x="1.07451" y="6" text-anchor="middle" font-size="0.4">48</text><rect x="-0.664252" y="4.6" width="0.740139" height="0.8" stroke-width="0.03" style="fill:#4860E8;stroke:black" /><text x="-0.294182" y="5" text-anchor="middle" font-size="0.4">56</text><rect x="-2.92221" y="3.6" width="0.922455" height="0.8" stroke-width="0.03" style="fill:#4860E8;stroke:black" /><text x="-2.46099" y="4" text-anchor="middle" font-size="0.4">66</text><rect x="1.98579" y="5.6" width="0.807473" height="0.8" stroke-width="0.03" style="fill:#4860E8;stroke:black" /><text x="2.38953" y="6" text-anchor="middle" font-size="0.4">41</text><rect x="2.99327" y="5.6" width="0.611956" height="0.8" stroke-width="0.03" style="fill:#4860E8;stroke:black" /><text x="3.29925" y="6" text-anchor="middle" font-size="0.4">40</text><rect x="2.30995" y="4.6" width="1.06887" height="0.8" stroke-width="0.03" style="fill:#4860E8;stroke:black" /><text x="2.84439" y="5" text-anchor="middle" font-size="0.4">42</text><rect x="1.58947" y="7.6" width="1.34346" height="0.8" stroke-width="0.03" style="fill:#4860E8;stroke:black" /><text x="2.26121" y="8" text-anchor="middle" font-size="0.4">36</text><rect x="3.13294" y="7.6" width="1.20551" height="0.8" stroke-width="0.03" style="fill:#4860E8;stroke:black" /><text x="3.73569" y="8" text-anchor="middle" font-size="0.4">35</text><rect x="2.33239" y="6.6" width="1.33211" height="0.8" stroke-width="0.03" style="fill:#4860E8;stroke:black" /><text x="2.99845" y="7" text-anchor="middle" font-size="0.4">37</text><rect x="3.94131" y="8.6" width="1.09065" height="0.8" stroke-width="0.03" style="fill:#4860E8;stroke:black" /><text x="4.48664" y="9" text-anchor="middle" font-size="0.4">32</text><rect x="5.23197" y="8.6" width="1.41087" height="0.8" stroke-width="0.03" style="fill:#4860E8;stroke:black" /><text x="5.9374" y="9" text-anchor="middle" font-size="0.4">31</text><rect x="4.53845" y="7.6" width="1.34715" height="0.8" stroke-width="0.03" style="fill:#4860E8;stroke:black" /><text x="5.21202" y="8" text-anchor="middle" font-size="0.4">33</text><rect x="6.0856" y="7.6" width="1.02734" height="0.8" stroke-width="0.03" style="fill:#4860E8;stroke:black" /><text x="6.59927" y="8" text-anchor="middle" font-size="0.4">30</text><rect x="5.29299" y="6.6" width="1.22532" height="0.8" stroke-width="0.03" style="fill:#4860E8;stroke:black" /><text x="5.90565" y="7" text-anchor="middle" font-size="0.4">34</text><rect x="3.80522" y="5.6" width="1.29365" height="0.8" stroke-width="0.03" style="fill:#4860E8;stroke:black" /><text x="4.45205" y="6" text-anchor="middle" font-size="0.4">38</text><rect x="7.31294" y="7.6" width="0.758124" height="0.8" stroke-width="0.03" style="fill:#4860E8;stroke:black" /><text x="7.692" y="8" text-anchor="middle" font-size="0.4">27</text><rect x="8.27106" y="7.6" width="1.24562" height="0.8" stroke-width="0.03" style="fill:#4860E8;stroke:black" /><text x="8.89387" y="8" text-anchor="middle" font-size="0.4">26</text><rect x="7.56617" y="6.6" width="1.45353" height="0.8" stroke-width="0.03" style="fill:#4860E8;stroke:black" /><text x="8.29294" y="7" text-anchor="middle" font-size="0.4">28</text><rect x="9.2197" y="6.6" width="1.49922" height="0.8" stroke-width="0.03" style="fill:#4860E8;stroke:black" /><text x="9.96931" y="7" text-anchor="middle" font-size="0.4">25</text><rect x="8.7037" y="5.6" width="0.854846" height="0.8" stroke-width="0.03" style="fill:#4860E8;stroke:black" /><text x="9.13112" y="6" text-anchor="middle" font-size="0.4">29</text><rect x="6.12599" y="4.6" width="1.33119" height="0.8" stroke-width="0.03" style="fill:#4860E8;stroke:black" /><text x="6.79159" y="5" text-anchor="middle" font-size="0.4">39</text><rect x="4.22193" y="3.6" width="1.19212" height="0.8" stroke-width="0.03" style="fill:#4860E8;stroke:black" /><text x="4.81799" y="4" text-anchor="middle" font-size="0.4">43</text><rect x="0.570284" y="2.6" width="1.21643" height="0.8" stroke-width="0.03" style="fill:#4860E8;stroke:black" /><text x="1.1785" y="3" text-anchor="middle" font-size="0.4">67</text><rect x="7.65718" y="4.6" width="0.995187" height="0.8" stroke-width="0.03" style="fill:#4860E8;stroke:black" /><text x="8.15478" y="5" text-anchor="middle" font-size="0.4">22</text><rect x="8.85237" y="4.6" width="1.38112" height="0.8" stroke-width="0.03" style="fill:#4860E8;stroke:black" /><text x="9.54293" y="5" text-anchor="middle" font-size="0.4">21</text><rect x="8.34284" y="3.6" width="1.01203" height="0.8" stroke-width="0.03" style="fill:#4860E8;stroke:black" /><text x="8.84885" y="4" text-anchor="middle" font-size="0.4">23</text><rect x="9.55487" y="3.6" width="0.714026" height="0.8" stroke-width="0.03" style="fill:#4860E8;stroke:black" /><text x="9.91188" y="4" text-anchor="middle" font-size="0.4">20</text><rect x="8.63289" y="2.6" width="1.49496" height="0.8" stroke-width="0.03" style="fill:#4860E8;stroke:black" /><text x="9.38037" y="3" text-anchor="middle" font-size="0.4">24</text><rect x="4.89637" y="1.6" width="0.766118" height="0.8" stroke-width="0.03" style="fill:#4860E8;stroke:black" /><text x="5.27943" y="2" text-anchor="middle" font-size="0.4">68</text><rect x="10.4335" y="4.6" width="0.97508" height="0.8" stroke-width="0.03" style="fill:#4860E8;stroke:black" /><text x="10.921" y="5" text-anchor="middle" font-size="0.4">16</text><rect x="10.938" y="5.6" width="1.00219" height="0.8" stroke-width="0.03" style="fill:#4860E8;stroke:black" /><text x="11.4391" y="6" text-anchor="middle" font-size="0.4">14</text><rect x="12.1402" y="5.6" width="1.30204" height="0.8" stroke-width="0.03" style="fill:#4860E8;stroke:black" /><text x="12.7912" y="6" text-anchor="middle" font-size="0.4">13</text><rect x="11.6086" y="4.6" width="1.01319" height="0.8" stroke-width="0.03" style="fill:#4860E8;stroke:black" /><text x="12.1152" y="5" text-anchor="middle" font-size="0.4">15</text><rect x="11.1129" y="3.6" width="0.810427" height="0.8" stroke-width="0.03" style="fill:#4860E8;stroke:black" /><text x="11.5181" y="4" text-anchor="middle" font-size="0.4">17</text><rect x="12.8624" y="4.6" width="0.712437" height="0.8" stroke-width="0.03" style="fill:#4860E8;stroke:black" /><text x="13.2186" y="5" text-anchor="middle" font-size="0.4">11</text><rect x="13.6422" y="5.6" width="0.625678" height="0.8" stroke-width="0.03" style="fill:#4860E8;stroke:black" /><text x="13.9551" y="6" text-anchor="middle" font-size="0.4">9</text><rect x="14.0568" y="6.6" width="0.59455" height="0.8" stroke-width="0.03" style="fill:#4860E8;stroke:black" /><text x="14.3541" y="7" text-anchor="middle" font-size="0.4">7</text><rect x="14.8513" y="6.6" width="0.75514" height="0.8" stroke-width="0.03" style="fill:#4860E8;stroke:black" /><text x="15.2289" y="7" text-anchor="middle" font-size="0.4">6</text><rect x="14.4679" y="5.6" width="0.647145" height="0.8" stroke-width="0.03" style="fill:#4860E8;stroke:black" /><text x="14.7915" y="6" text-anchor="middle" font-size="0.4">8</text><rect x="13.7749" y="4.6" width="1.19685" height="0.8" stroke-width="0.03" style="fill:#4860E8;stroke:black" /><text x="14.3733" y="5" text-anchor="middle" font-size="0.4">10</text><rect x="13.0552" y="3.6" width="1.48151" height="0.8" stroke-width="0.03" style="fill:#4860E8;stroke:black" /><text x="13.796" y="4" text-anchor="middle" font-size="0.4">12</text><rect x="12.1628" y="2.6" width="0.988457" height="0.8" stroke-width="0.03" style="fill:#4860E8;stroke:black" /><text x="12.657" y="3" text-anchor="middle" font-size="0.4">18</text><rect x="14.7367" y="3.6" width="0.697179" height="0.8" stroke-width="0.03" style="fill:#4860E8;stroke:black" /><text x="15.0853" y="4" text-anchor="middle" font-size="0.4">4</text><rect x="15.2536" y="4.6" width="0.541591" height="0.8" stroke-width="0.03" style="fill:#4860E8;stroke:black" /><text x="15.5244" y="5" text-anchor="middle" font-size="0.4">2</text><rect x="15.9952" y="4.6" width="1.28253" height="0.8" stroke-width="0.03" style="fill:#4860E8;stroke:black" /><text x="16.6365" y="5" text-anchor="middle" font-size="0.4">1</text><rect x="15.6339" y="3.6" width="0.893102" height="0.8" stroke-width="0.03" style="fill:#4860E8;stroke:black" /><text x="16.0805" y="4" text-anchor="middle" font-size="0.4">3</text><rect x="14.9539" y="2.6" width="1.25796" height="0.8" stroke-width="0.03" style="fill:#4860E8;stroke:black" /><text x="15.5829" y="3" text-anchor="middle" font-size="0.4">5</text><rect x="13.443" y="1.6" width="1.35383" height="0.8" stroke-width="0.03" style="fill:#4860E8;stroke:black" /><text x="14.12" y="2" text-anchor="middle" font-size="0.4">19</text><rect x="9.08582" y="0.6" width="1.22775" height="0.8" stroke-width="0.03" style="fill:#4860E8;stroke:black" /><text x="9.6997" y="1" text-anchor="middle" font-size="0.4">69</text><rect x="-0.561947" y="-0.4" width="1.12389" height="0.8" stroke-width="0.03" style="fill:#4860E8;stroke:black" /><text x="0" y="0" text-anchor="middle" font-size="0.4">99</text></svg>